<svg id="Layer_1" data-name="Layer 1" xmlns="http://www.w3.org/2000/svg" viewBox="0 0 197.67 341.76"><defs><style>.cls-1{fill:#919191;}.cls-2{fill:#7f766a;}.cls-3{fill:#a8a8a8;}.cls-4{fill:#c8996f;}.cls-5{fill:#797979;}.cls-6{fill:#f6f0cf;}.cls-7{fill:#c44a3d;}.cls-8{fill:#2e5295;}.cls-9{fill:#2b1e0d;}.cls-10{fill:#665952;}.cls-11{fill:#805dda;}</style></defs><title>alina</title><g id="pDmkCI.tif"><rect class="cls-1" x="704.1" y="436.94" width="13.86" height="2.08" transform="translate(817.43 283.75) rotate(162.3)"/><path class="cls-2" d="M805.51,357.29c-.91-.66-2.42-.21-3.5-.67-2.66-1.13-3.34-1.67-6.29-.86-1.55.42-4.08,1.93-5.6.93a1.62,1.62,0,0,0-.69-.38c-.35,0-.63.26-.89.5a5.11,5.11,0,0,1-3,1.37,12.14,12.14,0,0,0-2.49.2c-1.28.39-2.3,1.71-3.63,1.53a5.49,5.49,0,0,0-1.2-.21c-1.12.13-1.31,1.82-2.32,2.32-2.14,1.05-2.2-.38-3.54,1.57a17,17,0,0,0-1.56,4.19c-.27,1.2-.12,2.55-.8,3.57a14.26,14.26,0,0,1-1.25,1.33,7.81,7.81,0,0,0-1.28,2.42c-2.25,5.8-1,10.88-2.31,16.84a7.71,7.71,0,0,0-.3,3.33c.36,1.73,1.9,3.13,1.9,4.9,0,.55-.15,1.08-.12,1.62.08,1.2,1,2.14,1.57,3.2a5.65,5.65,0,0,1,.57,3.5c-.17,1.08-1.32,2-1.2,3,0,.4.27.76.35,1.16.32,1.6-1.67,2.71-2.05,4.29s.73,3.08.14,4.48c-.32.73-1,1.25-1.26,2a7.18,7.18,0,0,0-.07,1.47c-.18,2.54-3.52,3.86-4,6.37-.4,2.23,1.32,3.92.81,6.16s-2.25,4.71-1.54,7.24c.64,2.24,3.11,3.39,5.38,3.91a23.54,23.54,0,0,0,11.7-.35,47,47,0,0,0,10.6-5.14,5.59,5.59,0,0,0,1.64-1.28,5,5,0,0,0,.8-2.26c.63-3.74.06-6.83-.71-10.39s.73-7.08,1.51-10.41c.85-3.56,1.07-7.71-1.33-10.48-2.16-2.48-4-4.11-5.13-7.33a10.86,10.86,0,0,1,6.73-13.42,14.91,14.91,0,0,0,8.1-6.92c1.83-3.13,3-6.61,4.48-9.9,1.16-2.5,2.57-5,3-7.78C807,361.64,807,358.35,805.51,357.29Z" transform="translate(-704.11 -355.37)"/><path class="cls-3" d="M752.15,411.6s-36.53,18.42-35.94,22,1.19,6.84,6.54,4.56S757.05,424,757.05,424Z" transform="translate(-704.11 -355.37)"/><path class="cls-4" d="M832.05,502.1c8.37,6.62,13.18,15.23,13.49,25.92.14,5-.68,10-1.31,15-2.79,22.19-9.89,61.8-12.73,83.92-.18,1.42-4.68,58.31-4.64,62a1.9,1.9,0,0,0,.56,1.21c2,2,1.84,3.6,1.57,6.09H811.92c-.94-4.2,1.18-6,4.23-8.31-.33,0,1.37-61.44-.49-61.76-.28-14.44,1.92-74.44-8.82-75.63S794.23,629,794.4,631.71c.25,3.94-.34,8.1-.53,12q-.72,14.78-1.57,29.54c-.22,3.7-.43,7.41-.73,11.1-.07.93-2.65,10.8-3.24,10.94-1.94.45-5,0-6.89.39a47.83,47.83,0,0,1-7.18.45c-1.39.06-2.77.11-4.16.14-.85,0-2.62.41-3.39.06-1.53-.69-.49-3.7.17-4.86a6.43,6.43,0,0,1,4.17-3.13,7.72,7.72,0,0,1,7.44,2c4.6-3,2.4-36.27,1.65-44.81C778.5,627,775.73,540,775.49,530.77a34.42,34.42,0,0,1,5.51-20,3.18,3.18,0,0,0,.29-3.33,163.53,163.53,0,0,1-9.63-39.1c-.15-1.25-.27-2.33-1.75-2.84a4.86,4.86,0,0,1-2-1.66c-1.47-1.91-2.84-3.9-4.3-5.93-.38.22-.91.47-1.38.8L738,475.84a37.9,37.9,0,0,1-4.66,3c-4.58,2.3-8.71.58-9.89-4.1a8.59,8.59,0,0,1,0-3.81c2.16-10,4.41-20,6.63-30,.32-1.45,1.74-4.93,1.32-6.3s-1.31-1.35-2.43-2.22c-.85-.66-.93-1.89-.94-3,0-4.64-1-7.47,3-10.55,2.65-2,7.17-4,9.93-1.08.91,1,1.45,2.26,2.48,3.1a9,9,0,0,1,1.31,1.05c.8.93.67,2.31.45,3.51-.57,3.21-1.42,6.4-2.19,9.56-1.12,4.58-1.47,9.35-2.11,14-.29,2.09-.51,4.19-.8,6.7.78-.51,1.17-.72,1.51-1,4-3.95,8.94-7.25,13.37-10.63a75.59,75.59,0,0,0,11.32-10.8,21.51,21.51,0,0,1,3.26-3.21c4.23-3.13,10-2.8,15.26-2.33,1-3.11,2-6.5,3.18-9.57,2-5.36-.16-3.08-3.27-4.18a25.48,25.48,0,0,1-12.33-8.84,24.83,24.83,0,0,1-4.2-19.67c.76-3.55,2.35-11,5.08-13.69,4.15-4.11,12.71-2.55,17.64-1.29,9.2,2.36,18.63,7.84,21.24,17,1.54,5.38,1.74,11.38-1.75,16.06a8.4,8.4,0,0,0-1.18,1.79c-.66,1.68-8.62,20.35.18,20.17,4.55-.09,8.84-.5,12.41,2.87a16.89,16.89,0,0,1,3.54,5.91c6.11,14.46,11.35,29.16,16.85,43.83.34.89.82,1,1.61.64,1.58-.77,3.17-1.51,4.75-2.27q11.34-5.4,22.65-10.82a3.17,3.17,0,0,0,1-.74c7.43-8.53,18.5-1.63,27.44.88,2.18.62,2.69,2.28,1.57,4.26a9.38,9.38,0,0,1-5,4,23.66,23.66,0,0,1-16.13,1c-2.57-.79-4.36,0-6.36,1.2-10.35,6.06-20.78,12-31.07,18.15-4.15,2.47-8.57.43-10.34-3.69-4-9.16-7.31-19.19-12.53-27.72-2.78,2.39-1.91,4.14-1.6,7.36.8,8.35,1.34,16.16,2.8,24.42a2.71,2.71,0,0,0,2.18,2.39A50.13,50.13,0,0,1,832.05,502.1Z" transform="translate(-704.11 -355.37)"/><circle class="cls-5" cx="51.91" cy="61.6" r="8.78"/><path class="cls-6" d="M762.85,382.37a8.77,8.77,0,0,0,6.29-1.3,11.86,11.86,0,0,0,6-2.31,5.72,5.72,0,0,0,1.26-1.16c.57-.73.92-1.7,1.49-2.42.95-1.18,2.28-1.45,3.45-2.13s2.39-2.37,1.94-3.72c-1.17-.84-2-2.74-3.49-2.73-1,0-1.93,1-2.92,1.49s-1.89.4-2.8.89c-1.19.64-2.06,2.06-3,3.32a52.87,52.87,0,0,1-5.64,6.42,6,6,0,0,1-1,.89c-.88.57-2.12.78-2.39,2C762.24,381.65,762.64,382.29,762.85,382.37Z" transform="translate(-704.11 -355.37)"/><path d="M784.54,404.8c-.6,1.94-3.57,2.53-5.45,2.05a3.88,3.88,0,0,1-2.89-4.23c.24-1.67-1.56-4.33-1.56-4.33a40.42,40.42,0,0,0,6.6,2.17c2,.31,6.68.8,6.68.8S785.11,403,784.54,404.8Z" transform="translate(-704.11 -355.37)"/><path d="M779.23,387.08C777,386,775,385.61,773,384.6c-1-.51-1,.79-2.94,0,.42.2,1,1,1.34,1.07,1,.13,1.1.13,1,1.11a2.44,2.44,0,0,0,1.78,2.68,2.38,2.38,0,0,0,2.93-.83A9.58,9.58,0,0,1,779.23,387.08Z" transform="translate(-704.11 -355.37)"/><path d="M797.6,392.82c-1.75.29-2.4-1.45-3.5-1.52-2-.14-4.07-.36-6.18-.56a23,23,0,0,0,1.71,3.4c.74,1.05,3.17,1,3.54-.1C793.82,392.14,796.21,394.16,797.6,392.82Z" transform="translate(-704.11 -355.37)"/><path d="M795.71,387.46c-1.08-1.39-2.63-1.22-4-1.28a14.63,14.63,0,0,0-2.91.6c-1.7.28-1.08,1.3.34,1.3C791.26,387.93,793.39,387.69,795.71,387.46Z" transform="translate(-704.11 -355.37)"/><path d="M773.68,382.15c.87.6,3.89,1.91,4.64,2.31.39.2,2.28,0,1.1-1.33C778.5,381.71,775,381.27,773.68,382.15Z" transform="translate(-704.11 -355.37)"/><path class="cls-7" d="M780.11,406.25c1.63,0,3.13-.1,3.5-2.39a4.32,4.32,0,0,0-1-1.83,2.78,2.78,0,0,0-3.49.71,2.49,2.49,0,0,0-.71,2C778.56,405.18,778.51,406.29,780.11,406.25Z" transform="translate(-704.11 -355.37)"/><path d="M784,397c0,.24-.31.32-.47.39a3.16,3.16,0,0,1-1,.3,5.29,5.29,0,0,1-2.64-.38,4.12,4.12,0,0,1-1.91-1.71" transform="translate(-704.11 -355.37)"/><path class="cls-8" d="M819.63,686.22a70,70,0,0,1-9.67-.84c-.3-15.06-5.24-99.47-5.28-114.54-1.6,4.95-4.43,108.22-4.25,111,.07,1.1-9.3.67-9.95,1.66-1.16,1.8-22.32-1.36-22.32-1.36,0-.77,6.58-99.16,5.28-149.39a35.89,35.89,0,0,1,5.73-20.86,3.32,3.32,0,0,0,.31-3.48l41.4-13.16a2.81,2.81,0,0,0,2.27,2.49c1.62.43,7.77,3.94,9.25,5.11,8.73,6.91,13.74,15.88,14.06,27,.15,5.2-.71,10.45-1.36,15.65-2.92,23.14-4,115.51-6.9,138.57-.19,1.48-.66,2-2.12,1.9Z" transform="translate(-704.11 -355.37)"/><path class="cls-9" d="M757.44,454.47c0,.73,2.92,3.41,4.61,3.41,0,.76.05,1.53.11,2.3.38,4.61,1.88,9.14,7.9,11,4.74,11.38,2.38,30.25,4.58,44.4,14.23,0,44.27-7.45,57.41-13.51-6.84-9.21-13.09-24.17-13.12-34.68a1.82,1.82,0,0,1,.63-2.21c.24-.22,1.25,4.87,1.51,4.64,2.51-2.21,9.52-7.23,9.52-8,0-3.11,9.35-.91,9.28-4.18-.2-10-14-28.35-22.29-31.66-5.11-2-8.75,8.76-25.84,8.76s-13.41-8-16.74-7.19c-9.51,2.28-18.83,14.29-26.09,18.31C745.76,447.67,757.44,450,757.44,454.47Z" transform="translate(-704.11 -355.37)"/><path class="cls-10" d="M831.67,446.59a3.38,3.38,0,0,0,1.17-.44c1.42-.78,1.58-2.18,3.41-2.76,2.16-.69,4.47.28,6.33-1.51,2.39-2.28.86-6.22,1-9.52a9.26,9.26,0,0,0,0-2.73c-.3-1.22-1.32-2.13-1.75-3.3-.74-2,.36-4.4-.54-6.35-.67-1.45-2.31-2.29-2.88-3.78-.45-1.18-.16-2.62-.89-3.64-1.05-1.47-3.69-1.37-4.3-3.07-.3-.82,0-1.81-.39-2.58-.32-.58-1-.88-1.44-1.37-1.59-1.73,0-5.11-1.83-6.57-.84-.67-2.35-.89-2.39-2,0-.55.42-1,.59-1.54.39-1.24-.73-2.38-1.41-3.49-1.13-1.87,1.24-4.57,2-6.32a4.61,4.61,0,0,0-.27-3.13c-.88-2.6-1.66-6.35-3.6-8.4a9.16,9.16,0,0,0-2.37-1.65,2.62,2.62,0,0,0,0-2.94,10.65,10.65,0,0,0-2.1-2.3,1.71,1.71,0,0,1-.6-.88,4.25,4.25,0,0,1,0-.94,2.53,2.53,0,0,0-1.82-2.08,11.55,11.55,0,0,1-2.71-1.12c-1.32-1-1.84-3-3.45-3.41a10.82,10.82,0,0,0-2,0c-1.3,0-2.45-.82-3.68-1.26a7.09,7.09,0,0,0-4.87.05c-1.24.47-2.43,1.31-3.75,1.17a11.58,11.58,0,0,0-1.42-.21,3.91,3.91,0,0,0-1.28.37l-2.86,1.24a5.81,5.81,0,0,0-2.26,1.41c-.49.59-.77,1.38-1.41,1.82a5.73,5.73,0,0,1-2.28.52c-3,.55-2.25,4.13-2,6.15a4.23,4.23,0,0,1,3.91,1.1c1.07,1,1.84,2.26,2.9,3.25,1.74,1.61,4.11,2.31,6.15,3.52,3.51,2.09,5.9,5.71,7.3,9.55a53.54,53.54,0,0,1,2.4,12,24.88,24.88,0,0,1,.21,6.67c-.62,4-3.57,8.28-3.58,12.2a9.91,9.91,0,0,0,.53,2.79,37.83,37.83,0,0,1,1.9,13.69c-.16,3.41,2.4,7.35,5.06,9.28,3.41,2.46,6.81-.54,10.27,1.26.84.44,1.53,1.22,2.47,1.36,1.94.29,3.3-1.56,5.35-1.2C830.29,445.83,830.62,446.74,831.67,446.59Z" transform="translate(-704.11 -355.37)"/><path class="cls-6" d="M823.58,402.21a26,26,0,0,1-14.74-5.81,31.37,31.37,0,0,1-13.18-7.48,11.08,11.08,0,0,1-2.29-2.82c-.86-1.65-1-3.6-1.92-5.23-1.49-2.68-4.61-3.91-7-5.79s-4.17-5.64-2.06-7.86c3.55-.9,7.16-3.89,10.75-3.1,2.47.55,4.06,2.92,6.17,4.32s4.43,1.76,6.33,3.16c2.48,1.83,3.61,4.9,4.9,7.69,2.46,5.31,5.9,10.08,9.31,14.83a12.18,12.18,0,0,0,1.86,2.19c1.77,1.52,4.7,2.58,4.5,4.9C825.61,401.23,824.15,402.19,823.58,402.21Z" transform="translate(-704.11 -355.37)"/></g><path class="cls-11" d="M810.07,697.13s0-9.89,10.51-9.89a12.24,12.24,0,0,1,4.54.78c6,2.33,6,9.11,6,9.11Z" transform="translate(-704.11 -355.37)"/><path class="cls-11" d="M763.46,697.13s0-9.89,10.51-9.89c5.47,1.48,6.53-1.87,6.53-1.87s10.55-1.12,10.91.86c.81,4.56-.55,10.2-2.3,10.16s-8.15.74-8.15.74Z" transform="translate(-704.11 -355.37)"/></svg>