<svg id="Layer_1" data-name="Layer 1" xmlns="http://www.w3.org/2000/svg" viewBox="0 0 158.96 137.95"><defs><style>.cls-1{fill:#2bb9e8;}</style></defs><title>dune</title><g id="_0EWuJc.tif" data-name="0EWuJc.tif"><path class="cls-1" d="M776.93,468.37c-1.71-.61-3.43-1.2-5.13-1.86a6.59,6.59,0,0,1-1.87-1c-.32-.28-.38-.85-.57-1.29.45-.15.93-.48,1.34-.41,2.12.37,4.23.85,6.35,1.28.44.09.9.13,1.59.22.19-1.59.34-3.1.56-4.61a5.68,5.68,0,0,1,2.47-4.25c.12.8.43,1.46.26,2-.69,2-1.53,3.91-2.32,5.86-.15.37-.34.73-.51,1.09a4.9,4.9,0,0,0,5.29-.39c2.42-1.72,5-3.3,7.32-5.09a13.79,13.79,0,0,1,7.37-2.44,104.29,104.29,0,0,1,25.4.38c3.34.49,6.7.94,10,1.61,4,.82,6.9,3.09,8,7.25.07.27.08.57.19,1.38a8.75,8.75,0,0,1-1.85-1.08c-1.43-1.55-2.88-3.1-4.15-4.77a3.7,3.7,0,0,0-3.81-1.69,15.47,15.47,0,0,1-2.26,0l-.21.38c.68.72,1.36,1.44,2,2.15a3.7,3.7,0,0,0,.49.37c2,1.51,3.84,3.55,6.11,4.37s4.87.33,7.33.43c1,0,2.06,0,3.08.15a5.41,5.41,0,0,1,2,.59c1.89,1.12,3.71,2.34,5.56,3.54.12.07.18.23.26.35-1.14,1.14-3.84.93-4.31-.48a3.64,3.64,0,0,0-3.56-2.67c-2.47-.14-5,0-7.69,0a8.1,8.1,0,0,0,1,.74c4.78,2.51,8.5,6.27,12.22,10.07a27.15,27.15,0,0,0,3.64,2.68v-6.67c0-1.89,1.06-3.28,2.24-4.6a.61.61,0,0,1,1.08.53,15.61,15.61,0,0,1-.86,2.31c-1.34,2.83-1,5.72-.32,8.61a1.43,1.43,0,0,0,.75.85c3.69,1.43,7.39,2.81,11.16,4.24.56-1.29,1-2.48,1.59-3.61.23-.43.75-.7,1.13-1a4.31,4.31,0,0,1,.52,1.45c-.35,5.75-.43,11.55-1.22,17.24-.84,6-2.52,11.85-3.55,17.82a27.73,27.73,0,0,0,.73,12.81c.75,2.49.62,5.28.63,7.93a4,4,0,0,0,1.07,3c1.35,1.48,2.49,3.15,3.74,4.76,3.18-2.3,3-9.21-.93-14.5,0,1.82,0,3.45,0,5.09s.5,3.29,0,4.89l-.52.09a5.92,5.92,0,0,1-.58-1.54c-.22-3.08-.46-6.15-.49-9.23a5.49,5.49,0,0,0-.89-3.47,4.83,4.83,0,0,1-.38-1.72c.63,0,1.44-.33,1.86,0a7.62,7.62,0,0,1,2.62,2.48,29,29,0,0,1,2.78,16.79c-.13,1.06-1.24,2.19-2.18,2.94a6.05,6.05,0,0,0-2.48,2.93c-.64,2-2.23,3.25-3.92,4.42a5.93,5.93,0,0,0-1.62,2.07c-.93,1.71-1.78,3.47-2.57,5.24a5.08,5.08,0,0,0-.48,2.16c.08,2.55.26,5.11-2.16,6.85a5.71,5.71,0,0,1-1.29.52,4.71,4.71,0,0,1,0-1.41c.64-1.82,1.35-3.62,2.13-5.69-1.91.85-3.48,1.5-5,2.25a1.33,1.33,0,0,0-.46,1c-.07,1-.05,2-.06,2.94,0,3.75-1.87,6.18-5.3,7.52-2.43,1-4.85,2-7.33,2.82a16.22,16.22,0,0,1-4.21.78c-2.2.12-4.42,0-6.64,0a5.18,5.18,0,0,0-5,3c-2.37,4.46-6.54,6.35-11.29,6.28-8-.12-16-.75-24-1.11a11.63,11.63,0,0,0-2.66.39,28.37,28.37,0,0,1-3.58.72,86.8,86.8,0,0,1-24.21-2,8.49,8.49,0,0,1-5.55-3.82c-1.48-2.26-3.5-4.25-3.82-7.12-.17-1.53-.15-3.08-.34-4.61a2.8,2.8,0,0,0-.8-1.69,30.54,30.54,0,0,1-6.86-9.06c-1.07-2.06-2.19-4.09-3.12-6.2a25.47,25.47,0,0,0-8.13-10.28,61.63,61.63,0,0,1-6-5.55,6.78,6.78,0,0,1-2.16-5.1c0-4.94,0-9.87-.06-14.81a2.11,2.11,0,0,0-.77-1.33c-1.69-1.42-3.44-2.77-5.52-4.42,3.09-.94,5,1,7.09,2.07.1-.23.2-.36.17-.41-2.15-3.19-2.5-6.86-2.35-10.51a74.66,74.66,0,0,1,1.32-10.83,13,13,0,0,1,4.17-7c-1.46-2.3-.72-4.48.68-6.31a35.61,35.61,0,0,1,5.2-5.43,6.39,6.39,0,0,0,2.33-3.55,26.83,26.83,0,0,1,1.9-4.36c2.27,1.27.76,3,1.1,4.05,3.73-.79,7.36-1.7,11-2.31s7.25-.86,10.87-1.31c2.12-.27,4.16-.73,5.27-2.9.14-.26.68-.31,1-.46l.19.37-1,1.25.2.32,4.36-2.37a18.45,18.45,0,0,1-7.21,6.39c3.61-1.43,6.39-4.11,9.64-6.08l-.11-.47Zm-30.35,69.38c.82.15,1.09-.08.93-1a16.34,16.34,0,0,1-.39-4.27c.24-2.17-1.13-3.31-2.42-4.64a77.32,77.32,0,0,0,.76,8.35c.08.57.76,1,1.18,1.57-.2.18-.61.45-.58.51.7,1.53,1.44,3,2.17,4.55l.38-.18C748.31,540.87,749,538.72,746.58,537.75Zm44.9,54.41c-2.25-.94-4.26-2.09-5.42-4.33-.15-.29-.69-.38-1.06-.54-3.3-1.43-6.59-2.85-9.9-4.26-.4-.17-.94-.44-1.26-.3-3.33,1.41-6.26,3.34-8.13,6.56a1.37,1.37,0,0,0,.14,1.29c1.3.85,2.83,1.74,4.3.74,2.58-1.76,4.86-1.11,7.35.17C782,593.8,786.67,593.78,791.48,592.16ZM748.56,488.21c-2.38.23-4.37.38-6.34.66a1.72,1.72,0,0,0-1.19.92c-1.82,5.34-3.57,10.71-5.3,16.08a11.63,11.63,0,0,0-.23,2.21c1.59-2.21,2.93-4.14,4.35-6,.31-.41.93-.57,1.41-.85a5.63,5.63,0,0,1-.33,1.51c-1.46,2.71-3,5.39-4.44,8.11a2.42,2.42,0,0,0-.39,1.56c.57,1.9,1.27,3.76,1.93,5.63l.43,0c1-3.69,2-7.37,2.94-11.07.47-1.84.7-3.74,1.18-5.57A46.32,46.32,0,0,1,748.56,488.21Zm19-13-.11-.41c-1.4.08-2.8.14-4.2.25-5.89.47-11.77,1-17.46,2.79-.5.15-1.23.43-1.35.81-.88,2.86-1.63,5.77-2.48,8.89,2.84-.57,5.5-1.07,8.14-1.65a2.45,2.45,0,0,0,1.06-.83,31.33,31.33,0,0,1,15.14-9.33A10.46,10.46,0,0,0,767.53,475.24Zm-36.4,49.32c-.1.86-.21,1.34-.21,1.83,0,3.45.13,6.89,0,10.33a8.82,8.82,0,0,0,3.93,7.74c.45.34.89.69,1.35,1,3.64,2.68,6.87,5.71,8.95,9.81.73,1.43,1.67,2.75,2.51,4.12a20.86,20.86,0,0,0-1.47-5c-1.5-3.37-3.32-6.61-4.66-10-.78-2-1.73-3.4-3.78-4.19a6,6,0,0,1-4-4.71,11.66,11.66,0,0,1,.57-6.81c.14-.31.2-.89,0-1.07C733.41,526.6,732.37,525.71,731.13,524.56ZM872.2,489.75l-10.59-3.28c3.08,7.9,8.52,14.69,10.18,23.16l.41-.11ZM822,459a26,26,0,0,0-3.65-.43c-4.26.11-8.55.08-12.78.58a114.51,114.51,0,0,0-12.82,2.45,10.93,10.93,0,0,0-6,4c1.26-.16,2.22-.27,3.18-.41,3-.44,6.14-.39,8.82-2.27.69-.49,1.77-.43,2.89-.66l-.36,1.5,2.29-.22c-.15-1.6.22-2.1,1.73-2.33a14.89,14.89,0,0,1,8,1.11,5.12,5.12,0,0,0,5.1-.72C819.58,460.85,820.65,460,822,459Zm38.6,107.92a39.47,39.47,0,0,0,3.73-3,2.54,2.54,0,0,0,.49-2c-.33-1.39-1-2.7-1.4-4.08a5.35,5.35,0,0,1,.19-1.87c.56.35,1.34.57,1.65,1.07a19.89,19.89,0,0,1,1.28,3.06c3.06-2.22,3.06-2.23,1.59-4.28,2.6-1.35,1.1-4.55,2.78-6.39h.52c.14,1.18.27,2.35.43,3.73a14.23,14.23,0,0,0,2-1.26c.53-.47,1.23-1.1,1.28-1.71.23-2.59-1.21-4.47-3-6.41-1.53,5-3.05,9.68-10,8.57C861.69,557,861.18,561.68,860.61,566.88ZM732.32,514.32l.59,0c.37-1.54,1.12-3.09,1-4.59a21.82,21.82,0,0,1,2.26-11.65c1.23-2.43,2.27-5,3.38-7.45a8.92,8.92,0,0,0,.32-1.29,12.08,12.08,0,0,0-7,5.4c-2.35,3.87-2.77,8.2-3,12.61C729.77,510.15,731.32,512.09,732.32,514.32Zm26.13,62.43c-.67,5.31,2.21,8.8,5.19,12.57,1.47-4.72,5.41-6,9.43-7.72-1.67-1-3-2.53-4.48-2.62C765.12,578.79,761.74,578.59,758.45,576.75Zm83.7,5.9,0,.39a45,45,0,0,0,5.47-.74c2.18-.55,4.27-1.47,6.42-2.14,3.8-1.18,5.8-4.51,4.88-8.25-2.88,4.38-4.17,5.37-6.47,5.26l3.74-4.79-.35-.31a22.66,22.66,0,0,0-8.08,5.2C845.91,579.09,844,580.86,842.15,582.65Zm-49-5.73c.59.26,1.09.5,1.61.71,2.65,1.06,3.42.67,4.29-2.09.08-.26.46-.44.69-.65.22.24.65.53.61.73a10.17,10.17,0,0,1-.66,2.29,8.24,8.24,0,0,1-1.19,1.47c2.84.5,5.28,1,7.75,1.32a2.78,2.78,0,0,0,3-1.44c-2.61-3.08-5.19-6.08-9.75-5.68a2.54,2.54,0,0,1-.6-.08c-1.12-.18-2.42-.79-3.28-.41s-1.18,1.77-1.74,2.72C793.65,576.15,793.43,576.49,793.16,576.92Zm55.42-93.75c-3-4.1-7.11-6.29-11.14-8.51l.15-.49,2.83-.29c-.92-1.06-1.76-2-2.55-3a2.26,2.26,0,0,0-2.56-.89,10.35,10.35,0,0,1-2.61.22c-.37,0-.73-.37-1.09-.56.29-.29.54-.7.89-.84a18,18,0,0,1,2.29-.6c-3.74-2.49-7.4-3.23-11.46-1.65,7.95,3.05,12.57,6.42,18.46,13.46a2.05,2.05,0,0,0,.7.58C844.4,481.44,846.33,482.23,848.58,483.17ZM743.83,522.36c2.8-2.81,4.66-5.61,4-9.55-.26-1.67-.43-3.38.7-4.89a1.21,1.21,0,0,0,.09-.87c-.25-1.5-.53-3-.86-4.82a16.77,16.77,0,0,0-.93,1.68c-1.16,3-2.27,5.94-3.45,8.89C742.16,515.92,742.7,518.94,743.83,522.36Zm49,45.27c2.25.52,4,.92,5.83,1.37,1.18.29,1.71-.15,1.75-1.08l-12.53-7.75a5.2,5.2,0,0,1-.85.63c-.94.49-2.11-.07-2-1.1.23-1.55-.68-2.06-1.74-2.65a12.39,12.39,0,0,1-1.92-1.29c-1.29-1.08-2.71-.65-4.28-.35a8.09,8.09,0,0,0,1.67,1.64c1.88,1.67,3.8,3.3,5.56,5.09a3.91,3.91,0,0,0,2.61,1.32,13.26,13.26,0,0,1,7.55,3.1Zm43.06-15c.2,1.46-.35,3,1.24,3.18a5.52,5.52,0,0,0,3.44-.82c2.3-1.58,3.64-4,4.77-6.51.37-.83.23-1.2-.81-1.23a14.13,14.13,0,0,1-3.48-.5c-2.23-.62-3.68,0-4.35,2.21C836.27,550.3,836.07,551.68,835.86,552.65Zm-28.73,21.43-.2.55c2.18,1.85,4.39,3.68,6.52,5.59a1.63,1.63,0,0,0,2.52,0c1.68-1.44,3.4-2.82,5.09-4.25.51-.43,1-1,1.43-1.44l-.19-.46Zm21.89,13A65.07,65.07,0,0,0,810.19,590c1.76,1,3.31,2.07,5.25,1.92,3.47-.28,7-.51,10.39-1C828.36,590.49,829.26,589.15,829,587.06Zm34.24-36.43.46.32c2-2.4,3.94-4.78,5.88-7.2a2.55,2.55,0,0,0-.05-3.56,14.49,14.49,0,0,1-1.72-3.74,21.92,21.92,0,0,1-.66-2.8c-1.16,4.23-4.72,7.46-4.93,12.42a28.17,28.17,0,0,1,1.52-2.59,6.49,6.49,0,0,1,1.32-1.05,4.68,4.68,0,0,1,.14,1.64C864.63,546.28,863.93,548.45,863.26,550.63Zm-21.47-77.94-.36.21c.31.67.44,1.66,1,2,3.13,1.78,5.06,4.57,6.89,7.52a46.9,46.9,0,0,0,3,3.88c3.11-2,5.42-.49,7.93.54a6.74,6.74,0,0,0-1.91-2.52c-3.53-2.47-7.16-4.81-10.71-7.27C845.59,475.64,843.71,474.13,841.79,472.69Zm-35.95,7.23c2.19,2.2,2.33,2.24,5.11,2.59a23.79,23.79,0,0,1,10.61,3.86,15.08,15.08,0,0,0,3.35,1.27C822.88,483.23,814,477.56,805.84,479.92ZM838,533.72c1.83-3.82.9-8,.34-11.77-.44-3-2.82-5.74-4.34-8.59l-.49.19v5.53h1.9v.32l-1.45.23Zm5.54-51.45-.54.52c.45.72.89,1.44,1.36,2.15,1.93,3,3.61,6,3.22,9.74-.15,1.45.6,2.38,1.61,3.48.53-1,1.49-1.92,1.33-2.62-.4-1.72.18-2.42,1.73-2.61-.24-2.47-.77-4.58-3.22-5.77-1-.47-1.6-1.57-2.43-2.32C845.59,484,844.54,483.12,843.52,482.27Zm-17.33,90,.26.74c2.93-.42,5.87-.82,8.79-1.27a1.35,1.35,0,0,0,.91-.69c.88-2.45,1.69-4.92,2.53-7.39l-.27-.39a14.76,14.76,0,0,0-2.53,1.31c-1.77,1.39-3.42,2.94-5.19,4.36C829.24,570.11,827.69,571.17,826.19,572.28Zm-63.63-21.2.37-.26c-.79-1.08-1.56-2.18-2.39-3.24-1.57-2-3.49-3.85-4.68-6.08-1.35-2.52-3.58-2.26-5.75-2.89C751.38,543.45,756.22,548.23,762.56,551.08ZM863.28,494c-1,2.61-.92,4.12.18,6.13,2.17,4,4.8,7.8,5.67,12.4.19,1,.57,2,.86,2.94C871.28,507.23,866.56,501,863.28,494ZM763,505.72c-.25.27-.44.44-.59.63-1.15,1.51-2.31,3-3.43,4.54-1.35,1.84-1.13,5.38.56,7.44.79-.85,1.85-1.55,2.28-2.53.8-1.86,1.07-3.95,1.88-5.8A3.53,3.53,0,0,0,763,505.72ZM754.46,535l.43-.31a15.25,15.25,0,0,1-.28-1.62c-.31-3.41-1-7,.71-10.11,1.11-2,.3-3.3-.56-5.26-.92,2.25-1.63,4.22-2.52,6.1a9.35,9.35,0,0,0,.28,9A13.61,13.61,0,0,0,754.46,535Zm63.63,20.67A8.69,8.69,0,0,0,822,562.2c1.53-3,5.31-3.56,6.6-6.82a18.35,18.35,0,0,0-2.65.4c-.78.12-1.86.48-2.3.11C821.76,554.35,820,555.67,818.09,555.63Zm-31.68-39.16-1.26,9.38c.71.23,1.09.38,1.48.49.64.18,1.29.36,2,.48a1.73,1.73,0,0,0,2.1-2.2C790,521.61,789.14,518.7,786.41,516.47Zm12-46.83c-4.55-.55-8.19,1.05-10.34,4.91h8.58Zm.33,3.27.31.39a24.81,24.81,0,0,1,3.57-.72c2.35-.16,4.77.18,7.06-.27a25.17,25.17,0,0,1,9.27-.47c-3.34-1.7-6.79-2.91-10.6-2.67a2.44,2.44,0,0,0-.7.2,28.86,28.86,0,0,1-3.26,1.37c-1.28.35-2.66.34-3.92.73C799.79,471.68,799.29,472.42,798.72,472.91Zm9.2,36.57c.38-1.45-.6-4.43-1.78-4.48-3.08-.13-6.17-.05-9.47-.05,2.38,1.61,4.41,3.14,6.61,4.38.81.46,2,.27,3,.32A11.33,11.33,0,0,0,807.92,509.48ZM779.4,486c-2.62.61-5,1.2-7.48,1.72a27.41,27.41,0,0,1-3,.3l.57,4.65c2.77-1.27,5.24-2.5,7.81-3.54A3.12,3.12,0,0,0,779.4,486Zm16.35-18.65.09.53c3.06-.43,6.13-.79,9.18-1.3,4.67-.79,9.33-1.61,14.06-.48a4.05,4.05,0,0,0,1,0l0-.45c-2.24-.46-4.48-1.36-6.71-1.31-4.46.09-8.91.78-13.37,1.05A6.44,6.44,0,0,0,795.75,467.38ZM735,490.15c1.57-.67,3.16-1.34,4.73-2,.25-.11.56-.38.59-.61.31-2.46.58-4.92.86-7.49C737.36,481.36,735.86,485.42,735,490.15Zm43.52,7.33c-1.25.2-2.75,0-3.18.58a52.46,52.46,0,0,0-3.44,6.09c1.43.33,2.75,1.07,3.36.69a10,10,0,0,0,3.37-3.51C779.15,500.46,778.65,499.06,778.56,497.48Zm-12.44-7.27c-3.2,2.4-4.66,5.84-6.37,9.09a5.06,5.06,0,0,0-.27,1.53A5.31,5.31,0,0,0,761,501a1.69,1.69,0,0,0,.91-.77c.75-1.15,1.44-2.33,2.16-3.5.13-.21.47-.48.42-.59-.86-2,.66-1.46,1.62-1.53,1.34-.1,1.95-.89,1.48-2.16A11.61,11.61,0,0,0,766.12,490.21Zm59.67-17.47c-.69-.82-1.42-1.6-2-2.46a7.14,7.14,0,0,0-6.28-2.89c-2.62,0-5.24-.1-7.86-.15-.46,0-.92,0-1.39,0s-.89.1-1.34.15A59.43,59.43,0,0,1,825.79,472.74Zm-60.54,57.6-.33,0a7.5,7.5,0,0,0,.41,1.74c.87,1.75,1.81,3.46,2.73,5.18,1.18,2.2,3,3,6.06,2.23a13.12,13.12,0,0,0-1.67-2.67c-1-1-2.35-1.73-3.43-2.69C767.7,532.91,766.5,531.6,765.25,530.34Zm45.07,49.72a4.87,4.87,0,0,1-5.15,2.28c-2.87-.48-5.72-1.11-8.58-1.67-.54-.11-1.09-.19-1.64-.28l-.13.53c2.72,1,5.44,2,8.17,3,3.6,1.28,6.64-.32,9.84-1.76a3.55,3.55,0,0,0-.4-.51Zm50.22-73.26c1.44,5.41,4,10,6.31,14.72C867.84,517,864.53,509.27,860.54,506.8Zm-33,41.61c-4.79-.19-9.09,2.51-9.41,5.66,1.67-.18,3.35-.35,5-.56a1.29,1.29,0,0,0,.8-.36C825.1,551.66,826.22,550.15,827.53,548.41Zm-4.39-68.8c-3.92-4.44-8.75-5.68-13.17-3.63,0,.09.06.22.13.25.33.14.66.27,1,.39,2.94,1,5.71,2.64,9,2.31A10.85,10.85,0,0,1,823.14,479.61Zm14.17-2.4c-3.21-3.92-7.52-6-12.13-7.59.77,1,1.65,1.85,2.45,2.77a27,27,0,0,0,2.32,2.86c.75.67,1.49,1.84,2.95.82.47-.33,1.49,0,2.21.18A15.77,15.77,0,0,1,837.31,477.21ZM858,562.06c-3.45,3-4.71,5.41-4.63,8.84C858.24,569.52,859.79,566.6,858,562.06Zm-40.18-98.68c2.55,1.24,4.66,2.05,7,.84a3.41,3.41,0,0,1,1.66-.2c1.42.1,2.83.29,4.67.48-1.58-1.07-2.82-2-4.18-2.77a3.74,3.74,0,0,0-2.42-.47C822.42,461.8,820.31,462.59,817.84,463.38ZM778.6,575.53c-3-2.4-6.57-2.84-10.07-3.67C770.19,577,774.25,577.67,778.6,575.53Zm34.61-9.41,0,.43c3.48,1.53,7,2.8,11.1,2.38-1.19-1.28-2.22-2.45-3.33-3.56a1.51,1.51,0,0,0-1.1-.35C817.63,565.35,815.42,565.75,813.21,566.12Zm41.91-29c-.74.43-1.35.59-1.62,1-.57.84-.84,1.9-1.46,2.69-1.81,2.32-1.25,4.73-.62,6.91,1.06-1.42,2.21-3,3.33-4.5a1.9,1.9,0,0,0,.35-1C855.14,540.71,855.12,539.17,855.12,537.12Zm-56.59,5.45c-.32-.85-.61-1.71-.95-2.55s-.12-2.31-1.56-2.72c-.1,0-.19-.91,0-1,1.49-1.09.49-2.43.72-3.74-1.26.86-2.27,1.64-3.37,2.27-.74.42-.9.84-.57,1.6A12.12,12.12,0,0,0,798.53,542.57Zm54.9-56,7.7,9.22C862,490.21,860.9,488.64,853.43,486.57Zm-44.93,73c.9,2.11,6.09,3.91,9.24,3.07-1.3-1.15-2.5-2.23-3.71-3.29C812.08,557.61,810.48,557.68,808.5,559.55Zm-19.74-88.92c-5.54,1-10.51,2.29-14.76,5.56a1.28,1.28,0,0,0,.9,0,21,21,0,0,1,10.14-2.1,1.54,1.54,0,0,0,1.07-.42C786.94,472.83,787.7,471.87,788.76,470.63Zm-1.47,103.51c1.1.57,2,1.1,2.93,1.48.39.15,1.12.16,1.33-.09.75-.91,1.36-1.95,2.09-3-1.42-.43-2.6-.76-3.76-1.15s-2.36-.83-3.68-1.29l-.3,2C787.73,571.9,787.65,572.94,787.29,574.14Zm28.35,7.45c2.44,1.88,2.91,1.92,4.7-.35,1.47-1.85,2.71-3.89,4-5.86a4.43,4.43,0,0,0,.33-.88l-.23-.17ZM798.37,555c.69-1,1.26-1.82,1.76-2.64,1-1.7.54-2.47-1.34-3.24-1.67-.69-3.06,0-4.8.29Zm-46.89-5.62-.4.18c1.19,2.69,2.44,5.35,3.56,8.07.94,2.32,2.9,2.49,5.09,2.73Zm38.78-17.84c0-.51,0-1,0-1.54,0-1.41-.47-1.72-1.75-1a7.64,7.64,0,0,0-1.82,1.13,2.38,2.38,0,0,0-.72,1.58,8.33,8.33,0,0,0,.7,2.51,1.23,1.23,0,0,0,.87.61c2.22.12,2.78-.44,2.72-2.63ZM755.4,494.11l-.36-.45a16.29,16.29,0,0,1,1-2.42c1.2-1.88,2.5-3.7,3.76-5.55-5.22.65-7.11,4.55-6.14,8.92ZM829,497c1.47,3.53,4.26,5.55,7.54,4.27C835.23,497.76,834,497,829,497Zm-52.05,38.57a13.17,13.17,0,0,0-.07,2.87c.1.57.7,1.45,1.15,1.5a48.14,48.14,0,0,0,5.1.07l.25-.53c-.67-1-1.13-2.27-2-2.78C780.07,536,778.49,535.93,776.92,535.56Zm13.55-20.07c.72,3.3,1.38,6.35,2.07,9.54l1.55-.86c.24-1.67.5-3,.61-4.37a1.87,1.87,0,0,0-.47-1.4C793.13,517.43,791.91,516.58,790.47,515.49ZM744.41,537l.38-.2c-.2-.57-.37-1.15-.6-1.7a11.85,11.85,0,0,1-.69-7.68,3.85,3.85,0,0,0-.71-3.48c-1.13.17-1.45.82-1.41,1.85a38.55,38.55,0,0,1,0,4.3C741.15,533,743.25,534.76,744.41,537Zm105.52-38.06-.41.25a12.85,12.85,0,0,0,1,1.77c.48.6,1.21,1,1.62,1.64a21.78,21.78,0,0,1,2.6,4.65c.61,1.83.58,3.87,1,5.78a17,17,0,0,0,1.15,2.87l.42-.12a21.47,21.47,0,0,0-.49-4c-1-3.23-2.29-6.38-3.33-9.6C852.89,500.27,851.5,499.55,849.93,498.93ZM833.05,580.7l.89,2.2.51.14,2-4.3c-1.4,0-2.41-.31-3,0-2.29,1.3-4.46,2.83-6.67,4.27C828.94,582.68,831.77,584.39,833.05,580.7Zm-17-51.25c1.54-.49,2-1.19,2-2.41,0-2.58.25-5.13-3.34-6.17C814.29,523.87,815.86,526.5,816,529.45Zm-37.61-8.75c.8-4.49,1.59-8.89,2.38-13.28l-.49-.11-.54,2.54a7.33,7.33,0,0,1-.44,2c-.57,1-1.4,1.89-2,2.88C776,516.83,775.36,519.45,778.42,520.7Zm-7.79-36.35c2.09-.51,3.93-1.57,6-.35l-3.75,1.58c2-.15,3.9-.7,5.83-.79s2.08-1.19,2.32-2.52C778.33,481.26,772.47,482,770.63,484.35Zm74.58,85c1.24-.58,2.49-1.14,3.71-1.76.64-.31,1.62-.63,1.75-1.12.55-2.14.85-4.34,1.24-6.51l-.51-.17Zm-2.08-72.57c.22-4.73-2.14-7.62-6.17-9.38C839,490.45,839.68,494.49,843.13,496.75Zm-94.57,23.16-.54,0c-1.09.85-2.2,1.67-3.24,2.57-.29.24-.63.84-.52,1.07.78,1.66,1.67,3.27,2.53,4.9l.47-.18Zm112.87-4.64-.49.19L862.17,527l.39.17c.69-1,2.13-2.08,2-2.82C863.75,521.28,862.5,518.3,861.43,515.27Zm-58,26.46.7.08c.76-1.86,1.53-3.71,2.44-5.92-1.93.14-3.3.21-4.68.34-1,.09-1.17.77-.77,1.53C801.86,539.11,802.68,540.41,803.46,541.73Zm-39,32.07c-.46-1.66-.79-2.92-1.17-4.17a1.35,1.35,0,0,0-.49-.55c-.9-.69-1.79-1.39-2.73-2-.28-.19-.72-.12-1.09-.16,0,1.12-.56,2.77,0,3.26A37.18,37.18,0,0,0,764.5,573.8Zm22.28-104.21c-5.35-.75-5.36-.75-9.67,2.23-.84.58-1.68,1.19-2.49,1.81a4.79,4.79,0,0,0-.67.79Zm52.42,64.46c-.93,1.69-1.74,3-2.43,4.44-.86,1.75-.68,2.26,1,3.64a8.55,8.55,0,0,0,1.47-1.27,3.74,3.74,0,0,0,.93-2A36.11,36.11,0,0,0,839.2,534.05Zm-11.58,33.53,3-5.4-.43-.48-6.52,2.37Zm-29.26,23.13.12.67,10.61.84.23-.68a10.1,10.1,0,0,0-2.91-1.47,33.58,33.58,0,0,0-5.85-.11A8.19,8.19,0,0,0,798.36,590.71ZM847,576c-2.32-1.49-2.31-1.49-3.56.24a2.3,2.3,0,0,1-.72.79c-2.15,1-2.1,3.39-3.34,5l.43.4Zm-94.57-18.41a3.51,3.51,0,0,0,.08-.85c-1.13-3.61-2.24-7.22-3.44-10.8-.16-.48-.77-.81-1.17-1.22l-.39.33C747.75,549.67,749.64,553.61,752.45,557.61ZM766,549c.77,1.57,4.12,3.65,6.1,3.68l-5-7.84-1.17,1,2.27,2.12Zm7.12-13.32.56-.21a3.21,3.21,0,0,0-.82-3.56,15.17,15.17,0,0,1-2.47-4,2.66,2.66,0,0,0-3.5-1.78c.37.56.64,1,1,1.46,1.19,1.48,2.41,2.92,3.59,4.41a5.86,5.86,0,0,1,.75,1.31C772.59,534,772.86,534.83,773.16,535.63ZM752,487.76a22.41,22.41,0,0,0-5.4,7.61,5.93,5.93,0,0,1,5.4-1.86ZM784.87,516l-.44-.16c-1,1.66-2,3.29-3,5-1.14,2-1,2.37,1.25,3.3C784.78,521.78,784,518.69,784.87,516Zm19.67,10.41c-.28-2.87,0-2.13-3.51-4-1-.57-1.67,0-1.93,1a12.44,12.44,0,0,0-.2,1.84Zm11.38,14.17a13.18,13.18,0,0,0,5.43-4.56h-5.43Zm-80.68-8.87c-.87,3.11,1,6.57,4.91,7.79a31.07,31.07,0,0,0-1.91-4.13A40.48,40.48,0,0,0,735.24,531.74Zm62.44-40.46c-.95-2.88-1.65-3.24-4.23-2.2a18.12,18.12,0,0,0-2.32,1.19,9.83,9.83,0,0,0-1.15,1Zm-13.31,12.16c4.51.34,7-1.39,8.12-5.55ZM790,478.29c-4.12-1.42-5.88-.59-6.3,3.19,1-.09,2,.1,2.74-.31A28.83,28.83,0,0,0,790,478.29Zm14.42,49.56c-1.63-.25-3.2-.53-4.78-.7-.22,0-.67.45-.7.72a8,8,0,0,0,.13,2.13c0,.26.44.69.62.67C801.5,530.37,803.53,530.42,804.43,527.85Zm-46,44.78c-.45,2.38-.44,2.71,1.68,3.46a52.2,52.2,0,0,0,6.12,1.39l.09-.44Zm19-63.63-.32-.25a45.71,45.71,0,0,0-3.8,3.41c-.44.48-.2,1.53-.52,2.2-.51,1-.22,1.62.74,2C776.36,514.64,775.4,511.08,777.43,509Zm43.4-8.81c2.27,2.21,2.61,5.81,6.37,6.14C827,503.79,824.22,501,820.83,500.19Zm-47,62.33c-2.45-1.75-3.91-4.15-6.69-4.81C767.43,561.47,768.86,562.56,773.86,562.52Zm-15.48-59.19-.4,5.61a31,31,0,0,0,3.8-4.45,1.21,1.21,0,0,0,.19-1.06,1.57,1.57,0,0,0-1.13-.56A17.79,17.79,0,0,0,758.38,503.33Zm72.41-10.16c-1.65-3.06-3.67-4.41-6-4C826.31,492.6,827.45,493.36,830.79,493.17Zm-75.25,19,.54,0,.72-15.92C755.06,501.49,755.2,506.82,755.54,512.16Zm-5.61,21.39c0,1.51,0,2.89,0,4.27a.87.87,0,0,0,.56.59c1.1.16,2.21.25,3.55.38C753.1,536.7,752.64,534.58,749.93,533.55Zm70-27.57-.34.44c1.55,2.26,3.06,4.56,4.68,6.76.27.36,1.07.33,1.62.49l.19-.42c-1.32-1.94-2.58-3.92-4-5.78A8.92,8.92,0,0,0,819.93,506Zm-36.58-28.56a15,15,0,0,0-7.25,1.89l0,.46,5.77.64Zm-7,70.25.37-.39-2.59-5.82-3.31.91Zm12.87-53.75-.56.24c-.15.64-.63,1.5-.39,1.87.71,1.06.11,1.61-.49,2.25l-2.31,2.47.25.23,5.94-4Zm12.93,58.57L800,556.1l3.28,2C804.65,555.57,804.53,555,802.2,552.49Zm-17.77,20c-.13-1.32.14-2.74-.44-3.35-.92-1-2.41-1.37-3.74-2A5.66,5.66,0,0,0,784.43,572.48Zm67.41-46.42c-1.9,2.61-1.54,3.89,1.59,5.56C854.8,529.81,854.39,528.38,851.84,526.06Zm-60.67-18.44,4.53,3-.31-5.36-.55-.29Zm48.93,55.54-2.42,7.61C841.23,569.15,842.08,566.48,840.1,563.16ZM734.42,514.87c-.3.92-.84,1.68-.65,2.13.86,2,1.93,4,3,6.14a3.78,3.78,0,0,0,.32-.59c.29-1.13.57-2.28.85-3.42C735.94,518.74,735.94,518.74,734.42,514.87ZM849,559.77l-.25-.6a7,7,0,0,0-1.67.39,27,27,0,0,1-3.07,1.76c-1.7.61-1.66,1.6-.91,3.08Zm-24.11-12.9c1.76-.32,3.33.37,4.53-1l-1-1,1.48-.3-1.07-2.82Zm-37.52,32.79c1.11,2.27,8.6,5.35,10.71,4.48Zm34.79-52c-1.06,1.12-2,2-2.85,3s-1.49,2.28-2.31,3.58a6.74,6.74,0,0,0,1.67-.69c1-.73,1.8-1.68,2.79-2.38C822.66,530.36,822.69,529.32,822.12,527.69Zm47,1.64c-.52,4.51.27,9.06,1.78,10.75C871.6,536.38,870,533.15,869.12,529.33ZM809.2,548.28l-.48,3.46L815,549l-.15-.34Zm17.32-11-.21-.58c-.59.16-1.44.13-1.73.51a10.55,10.55,0,0,0-2.23,7.18c.68-1.13,1.14-2.39,1.79-3.54S825.72,538.51,826.52,537.32Zm-46.24-10.75c.4,3,.66,5.71,2.71,7.83a7,7,0,0,0-.8-2.17,1.41,1.41,0,0,1-.21-.68c.18-1.56.41-3.11.63-4.8Zm.57-11.32.4.14,3.59-5.94-2.19-1.37ZM773,566.8l-.1.4,6.5,3a20.29,20.29,0,0,0-.91-2.53,1.6,1.6,0,0,0-1-.82C776,566.75,774.49,566.8,773,566.8Zm-18.35-71c-.56.46-1.17.74-1.16,1,.15,3.82-1.07,7.66.11,11.44C754,504.25,754.29,500.25,754.66,495.82ZM798.92,482h5.52c-1.5-1.77-2.85-2.24-5.69-2.06Zm-4.46,103.74c-3.11-.39-5.44-3.1-9.16-2.9C788.05,585.72,791.36,585.47,794.46,585.77Zm-1.81-103.45,4.42-.32a8.36,8.36,0,0,0,0-1.81,1.25,1.25,0,0,0-.76-.86,2.11,2.11,0,0,0-1.6.22A23.61,23.61,0,0,0,792.65,482.32Zm-24.86,14.56-.17-.47c-.6.08-1.48-.07-1.76.27a28.6,28.6,0,0,0-2.42,3.69c-.11.2.13.62.2.93.31-.11.73-.12.91-.34C765.66,499.63,766.71,498.25,767.79,496.88Zm85.38,67.67.38.21,3.77-4-3.69-.53ZM778.52,554l-6.95-5.89C773.52,550.35,774,554.29,778.52,554Zm35.13,3.15,4.47,3.43a6.86,6.86,0,0,0-.49-2.3c-.26-.76-.5-1.52-.84-2.53Zm-13-68.64c.86,3,2.87,3.82,6.52,2.65Zm52,.92c.53,3.17,1.66,6.05,3.84,5.82C855.66,493,854.89,490.91,852.67,489.4ZM771.57,526l-.41.38,3.13,4.75.41-.26.7-2.48Zm-6-3.24c1-2,2.74-3.42,2-5.75C765.19,518.11,764.93,518.61,765.57,522.78Zm82,40.85-.46-.38c-1.89,1.74-4.24,3.17-4.36,6.12l.51.36Zm-19.29-42.79c1-3.23-.29-5.74-2.8-5.46Zm-50.39,21.62-.44.29,4.46,6.06C782.83,547,782,545.85,777.93,542.46Zm26.12-64,7.62.35C808.8,476.52,807.57,476.45,804.05,478.47Zm-52.46,40.11c2.58-3.26,2.72-4.36.9-7.55Zm80.48,14.77-.44-.08c-.27,1.54-.54,3.08-.85,4.83h2.63c-.45-1.67-.85-3.15-1.26-4.63A.42.42,0,0,0,832.07,533.35Zm32.5-5c-2.53,1.36-2.79,2.55-1.49,6.32C863.54,532.67,864,530.7,864.57,528.33ZM751.48,565.48l-.21.14,5,7.42.54-.23c-.12-.71,0-1.63-.41-2.11C754.83,568.88,753.13,567.21,751.48,565.48Zm12.68-20.4,2.31-1.63-2.29-3.92-.52.19Zm24.78-56.44c-2.52-.25-4.08,1.08-5.48,2.71C785.41,490.89,787.68,491.09,788.94,488.64Zm9.21,6-.14-.37h-5c.25,1.41,1.16,2.2,2.29,2A10.11,10.11,0,0,0,798.15,494.63Zm46.92,51.83c1.61-.06,2.57-2.39,2-5.36C846.29,542.93,844.08,544.05,845.07,546.46Zm-80.75,12.83c.23-3.6-2.3-4.41-4.67-5.37ZM830.53,579l-.11-.17c-1.31.11-2.62.21-3.93.34a1.73,1.73,0,0,0-1.22,2.56Zm-15-66c-1.12.77-1.94,1.26-2.66,1.87a1.22,1.22,0,0,0-.22,1.05c.09.33.62.87.71.83a7.65,7.65,0,0,0,2.38-1.5C816,515,815.65,514.06,815.53,513Zm40.58,6.8.43-.16-2.86-7.47C852.72,515.45,855,517.43,856.11,519.84Zm-4.66-.53c.81-2.32-.1-4-1.52-5.95C849.86,515.66,849.55,517.67,851.45,519.31Zm-49.09,15.27,4.62-.29c-.39-.75-.53-1.56-.93-1.71C804.43,532,803.3,532.59,802.36,534.58Zm-40.23,3v-2h-1.68c0-.33,0-.76.17-1,1.21-1.31.22-2.25-.55-3.25a26.37,26.37,0,0,0-.18,3.76C759.89,537.3,759.89,537.3,762.13,537.59Zm35.1-27.6h4L797,506.63Zm-19.46,20.78c-.91,2.75.34,4.14,3.26,3.75Zm4.86,49.58c-.44-.82-4.36-1.35-6.6-.88C778,581,778.79,581.08,782.63,580.35Zm-8.2-56.11c.13-2.26.13-2.26-2-4.16-.11.92-.43,1.68-.22,2.24C772.54,523.24,772.9,524.42,774.43,524.24Zm64.1-10.79.51-.28a3.87,3.87,0,0,0-2.9-4.55Zm-80.72,20.71h.3v-7.62h-.3Zm-1.09,34.45c.49-2.36-.31-3.3-4-4.81Zm30.81-32.09,1.86,3.36,1.5-4.07Zm23.86,2.66-.54-.06-1.34,3.13.47.33,2.6-.75Zm-8.29-20.89-3.21-2.87c-.07,1.46-.62,2.59.87,3.16C801.54,518.87,802.27,519.65,803.1,518.29Zm9.58-29.52-.07.49,6.22,1.18.12-.64C817.11,488.06,814.74,489.27,812.68,488.77Zm32.74,5.48.43-.07a8.7,8.7,0,0,0-1.61-6.1l-.59.17Zm-52-28.18-6,.88C791.2,468.39,791.79,468.29,793.46,466.07Zm-42.17,92.82-.35.39,5.53,4.89.59-.7Zm108.27-2,.61-5.17C857.82,553.62,857.82,553.62,859.56,556.85Zm-72-51.68-4.23,1.53C785.68,508.58,786.17,508.39,787.52,505.17Zm-35.77,41.56-.38.31,4.29,5.71C755.69,549.54,753.3,548.44,751.75,546.73Zm44.89-17,.81-2.63-4.21.93,0,.42Zm-8.51,22.15a4.85,4.85,0,0,0-3.52-5.08Zm4.94-18.57,3-2.66-3-.92Zm-13.63,7.34,3.94,2.53v-2.53ZM799,500.51l.17.28,4.29-1.43-1.14-1.87Zm-36.84,20.87c-1.71,1-1.58,1.89.29,4.37C763.89,524.15,761.93,523,762.12,521.38ZM762,532.11l.62-.24-3.24-8-.52.2Zm66.73,21.3.14.38c.57-.11,1.31,0,1.67-.36a2.67,2.67,0,0,0,.51-3.34Zm33.79-14,.46.16c1.55-2.73,3.43-5.32,3.46-8.7a13.65,13.65,0,0,1-3.55,7.14C862.58,538.28,862.62,538.9,862.5,539.37ZM845.92,524.1c1.05-3.69,1.06-4.39-.89-5.13Zm-3.63,11.84.49.17c.19-.53.62-1.13.5-1.59-.43-1.68-1-3.31-1.59-5l-.29.06Zm-77.86-29.15.57,0,1.42-2.65-.23-.45c-.68.16-1.86.19-2,.52A7.44,7.44,0,0,0,764.43,506.79Zm97-4.22-.56.38c.77,2.34,3.13,3.37,4.44,5.26l.32-.26Zm-96.33-19.94a2.73,2.73,0,0,0,3.13-2.5C766.47,480.29,765.83,480.81,765.05,482.63Zm45.51,44.55c-.84,2.43-.36,3.11,2.31,3.55Zm24.23-24.54c1.62,2.43,1.7,2.47,3.11,1.67C837.74,502.27,836.34,502.44,834.79,502.64ZM770,494.43l.18.49c2.36.65,2.74.49,4.08-1.89Zm46.66,89.79c-2.58-1.88-3-1.87-5.12,0Zm-12.72-68.3c.5-1.48-1-2.77-4-3.22Zm27.5,27,1.67-2.89-2.78-.48Zm8.35,32.11-2.54.24.12,1.67C839,577.36,839.75,576.8,839.74,575.06ZM795.6,555.4l.24-.25-3.64-2.65-.58,1.46ZM846,552.46l.28.28,2.82-2.19-1.62-1ZM816.5,502.92l.37-.12c-.62-1.83-.94-3.81-2.47-5.19l-.42.21Zm-57-22.14.32.45c1.64-1.29,3.9-1.53,5.44-3l-.27-.46Zm27.86,58.11a12.6,12.6,0,0,0-.88-1.87,1.08,1.08,0,0,0-1-.33,1,1,0,0,0-.33.95C785.48,538.44,785.87,539.38,787.31,538.89Zm12.79,21.74c-1.26-2.59-2-2.78-3.21-1Zm-65.61-36c-.53-2.72-.94-3.23-3-3.32Zm109.33,47.08c2.34-.09,4.37-.06,5.89-1.77Zm-46.48-46.2-.08-1.63L794,525.77l.13.24Zm-51.46,17.27.46-.27v-1.88l-2-.33-.26.25ZM806.27,489l4.14,1.44C809.63,488.87,808.78,488.53,806.27,489Zm1.59,9-3-1.83-.26.23,1.17,2.23Zm46.31,59.14L857,558l-.9-2.58Zm-63.41-45.74,3.22,3C792.86,511.57,792.45,511.2,790.76,511.41ZM813.44,526l.36-.1L813,523l-1.48,1.57Zm1.46,21,.21-.44c-.46-.33-.9-.88-1.39-.92s-1.05.41-1.59.65l.18.52Zm14.25-65.25-.27.28,3.5,4.34C831.34,484.75,831,482.64,829.15,481.7Zm-67.38,59.41c.48-2.32.43-2.37-1.95-2.28Zm112.91,12.54-.36-.37c-.88.93-2.67.94-2.91,2.52l.39.42Zm-31.34-45.58-.39.14,1.63,4.72.6-.22Q844.27,510.39,843.34,508.07Zm15.07-13.64c-.78,2.15.6,2.66,2,3.2Zm-52.35,53.14-1.77.29,1,2,.37-.17Zm43.84-42.19.38-.2-1.82-3.49C847.55,503.89,849.25,504.36,849.9,505.38Zm-45.24-11.66,2.59,1.35C807,493.23,806.12,493,804.66,493.72Zm25.65,35.07a2.45,2.45,0,0,0-.45-3.52Zm8.38-46.66,2.67,3A3.78,3.78,0,0,0,838.69,482.13ZM785.12,543a2.39,2.39,0,0,0,2.34,2.85Zm25.24-20.35.48.23c.54-.8,2.12-1.11,1.43-2.5l-.6-.29Zm21.39,35.86.31.31,2.38-1.71-1.76-.63Zm-35.18,31.07-3.68-.47-.06.36C794.07,589.65,795.12,591,796.57,589.61Zm-13.48-95.17c-2.45-.6-2.51-.57-2.9,1.29Zm-15.18,5.08-1.71,2.26C767.9,502.56,768.12,502.3,767.91,499.52Zm22-16-.13-.5-2.93.6.19.76Zm10.32,50.92.36.13,1.26-2-1.62-.51Zm27.71-39.69-.08.61,4.66.5,0-.39Zm-43.56-11.33c-1.4-1-2-.63-2.21,1.18Zm63.84,64.68,1.41.88.31-.25-.58-2.65Zm-82.13,18.67c.27,2,1.53,2.26,2.86,2.49ZM814,536l-.46-.19c-.25.35-.8.85-.71,1a7.57,7.57,0,0,0,1.22,1.45l.31-.22Zm3,11.11,1-3.06-2,.93ZM791,540l2.57,1.05-1.84-2.64Zm28.7-13,1.63-1.39-1.63-1.26Zm14.9,34.32.24.6c1.2.37,1.83-.35,2.21-1.59Z" transform="translate(-723.27 -456.41)"/><path class="cls-1" d="M874,512.73a11,11,0,0,1,.77,3c-.25,5.59,2.67,9.62,6.34,13.32a5.44,5.44,0,0,1,.74.78c.18.28.42.81.32.92a1.48,1.48,0,0,1-1,.41,5.16,5.16,0,0,1-3.77-2.13c-2.22-2.79-3-6.15-3.61-9.53-.34-1.76-.54-3.55-.73-5.33a5,5,0,0,1,.28-1.46Z" transform="translate(-723.27 -456.41)"/></g></svg>