<svg id="Layer_1" data-name="Layer 1" xmlns="http://www.w3.org/2000/svg" viewBox="0 0 148.34 91.59"><defs><style>.cls-1{fill:#fff;}</style></defs><title>fogL</title><path class="cls-1" d="M847.57,565.91c-9.4-.13-18.73-.94-27-6.26l-3.86,3.55c.15,2.84,4.72,1.93,3.94,5.15-4.82.08-9.35-.57-13.35-3.5a5.61,5.61,0,0,0-3.21-.5c-2.46.06-5,.66-7.37.38-5.23-.6-10.63-.26-15.63-2.34-1.76-.73-2.8.08-4.3,1-4.16,2.5-8.74,4.28-13.72,3-2.19-.57-4.15-2-6.3-2.8a13.87,13.87,0,0,0-3.33-.39c4.71,3.26,9,6.92,14.94,7.29-1.06.73-2.34,1.54-3.17,1.21-3.62-1.41-7.51-.6-11.09-1.63-2.83-.82-6.11-1.66-8.06-3.62-4.84-4.86-10.1-9.7-11.28-17a10.62,10.62,0,0,0-3.15-5.9c-2.46-2.48-3.68-5-2.44-8.59a12.67,12.67,0,0,0,0-5.94c-.87-5-.09-9.43,3.27-13.28,3.28,2.52-.45,6.69,2,9.41.95-.71,1.71-1.69,2.63-1.88,2.92-.6,4.57-1.87,4.32-5.16-.1-1.25.75-2.54,1-3.84.88-5.26,3.5-9.67,8.2-11.83,4.29-2,8-6.63,14.1-3.74,1.4-2.69,2.55-5.3,4.05-7.69,2.71-4.32,6.83-6.93,11.47-8.83-3.23,4-7,7.62-8.95,12.52A14.07,14.07,0,0,0,771,498c2.77-3.05,4.73-5.84,7.28-7.9,6.52-5.26,13.44-9.58,22.28-5a2.51,2.51,0,0,0,1.93-.13c9.36-4.41,11.74-4.95,18.15-4.77s11.85,3.19,16.94,6.71c2.64,1.82,2.93,5.08,3.61,7.95.62,2.58,1.82,4.15,4.71,3.86.67-3.23,1.31-6.32,2.11-10.16,1.91,2.18,3.85,3.63,4.67,5.56s.49,4.27.67,6.56c7.16,3.17,11.77,8.36,13.06,16.4.67,4.21.37,8-1.8,11.74s-5,6.56-9.47,7.15c.89-2.21,1.78-4.41,3-6.7a2.64,2.64,0,0,0,.73-1.07c-.31,0-.85-.11-.9,0a3.9,3.9,0,0,0-.13,1.15l.3-.08c-1.23.68-2.16,1.26-3.08,1.86-2.95,1.91-5.66,4.49-8.89,5.59-4.5,1.53-9.09,3.54-14.19,2.57-1.09-.21-2.41.76-4,1.32a6.18,6.18,0,0,1,1.16.69c10.75,12.52,24.55,18.43,40.87,19a51.61,51.61,0,0,1,7.09,1.24c-2.15,3.33-4.62,1.13-6.66,1.18a39.58,39.58,0,0,1-18.11-3.32c-.71-.33-1.76.08-3.22-.38-.69-.32-.92,0-.88,0a6.68,6.68,0,0,0,.83.66l.45-.78c-.32-.14-.65-.29-.4.09a5.07,5.07,0,0,1,.93,1.91,3.27,3.27,0,0,1-3.81-.46,3.25,3.25,0,0,0-3.81-.46,21,21,0,0,1-2.32-1.54c-.68-.32-.92,0-.88,0a6,6,0,0,0,.84.67l.45-.78c-.33-.14-.65-.29-.41.09a21,21,0,0,0,2.32,1.54,8.8,8.8,0,0,0,5.57,3c2.18.35,4.19,1.72,6.28,2.64C852.09,567.09,849.77,565.93,847.57,565.91Zm-10.72-7.37a4.28,4.28,0,0,0,.18-1c0-.12-.35-.23-.55-.34l-.25,1Z" transform="translate(-728.75 -480.14)"/></svg>