<svg id="Layer_1" data-name="Layer 1" xmlns="http://www.w3.org/2000/svg" viewBox="0 0 161.22 126.51"><defs><style>.cls-1{fill:#fff;}</style></defs><title>fogR</title><path class="cls-1" d="M821.81,477.79c4.36-8.07,10.4-8.28,17.52-7,9.1,1.65,10.39,1.78,15.62,6.86,1.92,1.87,7.21,13,6.18,15.12-2.5,5.13.56,9.37,2.59,12.74,2.63,4.39.33,8.92,2.36,12.93-3.56,2.57-.59,4.67.84,6.27a37.11,37.11,0,0,0,7.35,6.15c10.26,6.67,10.43,22.2,6,29.84a39.76,39.76,0,0,1-10.3,12c-10.69,8.16-22.48,13.81-35.91,14.7-7,.47-14,3-21.11,1-4.6,2.29-8.72-.06-13-1.06,12.64-.69,24.19-5.24,36.37-7.23l-.5-2.33c-1.48.22-3,.42-4.44.67-1.71.29-3.4.69-5.12.94-3.44.5-6.91,1.4-10.34,1.28-8-.26-16,1.62-24,0-2-.41-4.74-.05-3.77-3.66.06-.21-1.78-1.39-2.1-1.17-4,2.72-7.88.27-11.62-.45-7.22-1.38-14.7.67-21.77-2a39.19,39.19,0,0,0-4.93-1c16.3-5.68,33-4.94,46.3-15.36-3.51-3.26-7.33.65-10.76-.58-.59-.21-1.75,1.22-2.36,1-8-2.69-16.11,1.1-24.11-.56-4.6-1-9.47-3.07-13.79-2.29-6.78,1.23-12.7-1.43-19-2-.5,0-1-.63-2.14-1.45,5.92-.43,11.57.8,16.59-2.71l-3.33-1.92c.26-.4.57-1.15.77-1.13a59.42,59.42,0,0,0,37.1-6.5,41.27,41.27,0,0,0-2.18-3.8c-2-2.76-.9-5.56.71-7.57,1.91-2.37,4.69-2.82,7.1,0,.23.27,1.37.15,1.69-.18s.33-1.56.11-1.67c-5.71-2.9-4.82-10.27-10.19-14.07l-8.48-1.58c-1.92-4-1.36-9.05-6.37-11.91-4.09-2.34-3.05-8.14-5.16-12.07-.32-.59.65-2.06,1.27-2.94,2.47-3.48,4.82-6.9,10.19-5.79a11.22,11.22,0,0,0,6.74-1.21c1.73-.85,3-2.74,4.25-4.39,5.46-7.5,14-8.39,21.9-8.9C804.61,462.2,814.22,468.21,821.81,477.79Z" transform="translate(-721.8 -462.8)"/></svg>