<svg id="Layer_1" data-name="Layer 1" xmlns="http://www.w3.org/2000/svg" viewBox="0 0 409.49 102.67"><title>carroviejo</title><path d="M564.76,538.07c-.42-14-12.23-25.38-26.63-25.64-15.33-.28-28.44,12.68-27.84,27.51.55,13.89,12.56,24.55,27.55,24.46C553.42,564.3,565.19,552.79,564.76,538.07Zm-27,17.7c-10,.06-18-7.06-18.4-16.34-.4-9.91,8.36-18.56,18.59-18.38a18,18,0,0,1,17.79,17.13C556,548,548.14,555.71,537.73,555.77Z" transform="translate(-434.91 -461.73)"/><path d="M537.85,524c-8.49-.16-15.77,7-15.44,15.26.31,7.71,7,13.61,15.29,13.56,8.64-.05,15.17-6.44,14.93-14.6A14.93,14.93,0,0,0,537.85,524Zm-.17,27.45c-7.53,0-13.55-5.3-13.83-12.27-.3-7.45,6.28-13.95,14-13.81a13.51,13.51,0,0,1,13.37,12.87C551.41,545.62,545.5,551.4,537.68,551.45Z" transform="translate(-434.91 -461.73)"/><path d="M537.73,529.12a9.79,9.79,0,0,0-10,9.84c.2,5,4.49,8.77,9.85,8.74,5.57,0,9.78-4.15,9.62-9.41A9.61,9.61,0,0,0,537.73,529.12ZM537.61,546c-4.38,0-7.89-3.09-8.05-7.15a8,8,0,0,1,8.13-8.05,7.87,7.87,0,0,1,7.79,7.5C545.61,542.61,542.17,546,537.61,546Z" transform="translate(-434.91 -461.73)"/><path d="M802.21,538.07c-.42-14-12.22-25.38-26.63-25.64-15.32-.28-28.43,12.68-27.84,27.51.56,13.89,12.56,24.55,27.55,24.46C790.88,564.3,802.65,552.79,802.21,538.07Zm-27,17.7c-10,.06-18-7.06-18.41-16.34-.4-9.91,8.36-18.56,18.6-18.38a18,18,0,0,1,17.79,17.13C793.46,548,785.6,555.71,775.19,555.77Z" transform="translate(-434.91 -461.73)"/><path d="M775.31,524c-8.5-.16-15.77,7-15.44,15.26.31,7.71,7,13.61,15.28,13.56,8.64-.05,15.17-6.44,14.93-14.6A14.92,14.92,0,0,0,775.31,524Zm-.18,27.45c-7.52,0-13.54-5.3-13.82-12.27-.3-7.45,6.28-13.95,14-13.81a13.5,13.5,0,0,1,13.36,12.87C788.86,545.62,783,551.4,775.13,551.45Z" transform="translate(-434.91 -461.73)"/><path d="M775.19,529.12a9.78,9.78,0,0,0-10,9.84c.2,5,4.49,8.77,9.85,8.74,5.57,0,9.78-4.15,9.62-9.41A9.62,9.62,0,0,0,775.19,529.12ZM775.07,546c-4.39,0-7.9-3.09-8.06-7.15a8,8,0,0,1,8.14-8.05,7.86,7.86,0,0,1,7.78,7.5C783.06,542.61,779.62,546,775.07,546Z" transform="translate(-434.91 -461.73)"/><path d="M844.4,513.71c0-.87-3.48-.28-3.53-1.16a46.44,46.44,0,0,0-2-11.69c-.76-2.35-10.89-4.38-24.94-6.08l-1.35-1.08.4-2.5-.28-2.2-.76.28-.2,2,.39,2.41-1.66.74h0c-31.16-3.5-78.07-5.46-88-5.64-10.59-2.78-23.77-10.78-46.81-26-4.27-2.82-100.33,1-109.56,3.42-7.06,1.86-24.43,24.42-24.43,24.42s-85.47,3.71-100.13,8.05c-2.82.84-3.8,9.86-3.66,19.49,0,.79-2.69.18-2.75,1-.65,8.32,0,16.28,2.61,17.9,2.3,1.41,15.34,2,16.28,2.14,1.12.14,1.43,2.35,2.18,2.36,16.69.08,29.69,2.31,45.76,3.29,2.13-17.6,14.92-21.07,32.7-21.57,25.37-.72,31,5.1,31.92,24.17,54.57-1,156.66,2.39,161.79,2.51s15-39.88,48.52-39.88c25.31,0,29.25,21.64,28.87,31.23,0-.23,19.09-1.65,21.85-1.82C844.4,538.33,844.42,516.74,844.4,513.71Zm-268.91-18s18.67-27,26.27-26.82c9.58.24,20.55-.81,28.13-.87.82,0,.26,18.46.38,27.69ZM633.41,468l.61,27.74H632.8Zm3.15,27.74c-.2-9.08-.57-27.73-.16-27.73,11.46,0,22.43.05,36.7.74a224.22,224.22,0,0,1,28.43,27Z" transform="translate(-434.91 -461.73)"/></svg>