<svg id="Layer_1" data-name="Layer 1" xmlns="http://www.w3.org/2000/svg" viewBox="0 0 287.63 287.63"><defs><style>.cls-1,.cls-2{fill:none;stroke:#2bbae9;stroke-miterlimit:10;}.cls-1{stroke-width:4px;}.cls-2{stroke-width:2px;}.cls-3{fill:#2bbae9;}</style></defs><title>ferris</title><circle class="cls-1" cx="143.8" cy="143.82" r="15.95"/><circle class="cls-1" cx="143.8" cy="143.82" r="37.37"/><circle class="cls-1" cx="143.8" cy="143.82" r="94.01"/><circle class="cls-1" cx="143.8" cy="143.82" r="114.68"/><line class="cls-1" x1="147.02" y1="159.44" x2="170.49" y2="273.47"/><line class="cls-1" x1="117.11" y1="14.17" x2="140.59" y2="128.2"/><line class="cls-1" x1="159.42" y1="140.6" x2="273.45" y2="117.13"/><line class="cls-1" x1="14.15" y1="170.51" x2="128.18" y2="147.03"/><line class="cls-1" x1="157.12" y1="152.59" x2="254.35" y2="216.62"/><line class="cls-1" x1="33.25" y1="71.01" x2="130.48" y2="135.05"/><line class="cls-1" x1="152.57" y1="130.5" x2="216.6" y2="33.27"/><line class="cls-1" x1="71" y1="254.37" x2="135.03" y2="157.13"/><line class="cls-1" x1="152.82" y1="157.03" x2="218.42" y2="253.15"/><line class="cls-1" x1="69.18" y1="34.49" x2="134.81" y2="130.64"/><line class="cls-1" x1="156.97" y1="134.83" x2="253.13" y2="69.2"/><line class="cls-1" x1="34.47" y1="218.44" x2="130.63" y2="152.81"/><line class="cls-1" x1="159.47" y1="146.77" x2="273.88" y2="168.36"/><line class="cls-1" x1="13.73" y1="119.27" x2="128.13" y2="140.86"/><line class="cls-1" x1="146.76" y1="128.14" x2="168.34" y2="13.74"/><line class="cls-1" x1="119.26" y1="273.89" x2="140.84" y2="159.49"/><polygon class="cls-2" points="91.73 67.52 136.2 106.91 160.93 53.05 164.52 112.35 220.1 91.74 180.71 136.22 234.57 160.94 175.27 164.54 195.88 220.11 151.4 180.72 126.67 234.59 123.08 175.28 67.5 195.89 106.9 151.41 53.03 126.69 112.33 123.09 91.73 67.52"/><rect class="cls-3" x="497.39" y="526.71" width="17.63" height="25.5" rx="8.74" transform="translate(-594.63 -254.94) rotate(-11.63)"/><rect class="cls-3" x="765.11" y="471.6" width="17.63" height="25.5" rx="8.74" transform="translate(-578.01 -202.09) rotate(-11.63)"/><rect class="cls-3" x="654.87" y="636.95" width="25.5" height="17.63" rx="8.74" transform="translate(-612.75 -220.21) rotate(-11.63)"/><rect class="cls-3" x="599.76" y="369.23" width="25.5" height="17.63" rx="8.74" transform="translate(-559.89 -236.82) rotate(-11.63)"/><rect class="cls-3" x="556.08" y="613.3" width="17.63" height="25.5" rx="8.74" transform="translate(-764.9 385.41) rotate(-56.63)"/><rect class="cls-3" x="706.42" y="385.01" width="17.63" height="25.5" rx="8.74" transform="translate(-506.59 408.24) rotate(-56.63)"/><rect class="cls-3" x="741.46" y="578.26" width="25.5" height="17.63" rx="8.74" transform="translate(-647.16 525.98) rotate(-56.63)"/><rect class="cls-3" x="513.17" y="427.92" width="25.5" height="17.63" rx="8.74" transform="translate(-624.33 267.67) rotate(-56.63)"/><rect class="cls-3" x="518.22" y="575.98" width="17.63" height="25.5" rx="8.74" transform="translate(-736.03 29.97) rotate(-34.2)"/><rect class="cls-3" x="744.29" y="422.33" width="17.63" height="25.5" rx="8.74" transform="translate(-610.57 130.48) rotate(-34.2)"/><rect class="cls-3" x="704.14" y="616.12" width="25.5" height="17.63" rx="8.74" transform="translate(-723.56 142.96) rotate(-34.2)"/><rect class="cls-3" x="550.49" y="390.05" width="25.5" height="17.63" rx="8.74" transform="translate(-623.05 17.49) rotate(-34.2)"/><rect class="cls-3" x="605.65" y="633.4" width="17.63" height="25.5" rx="8.74" transform="translate(-631.62 760.59) rotate(-79.2)"/><rect class="cls-3" x="656.86" y="364.9" width="17.63" height="25.5" rx="8.74" transform="translate(-326.26 592.69) rotate(-79.2)"/><rect class="cls-3" x="761.56" y="528.69" width="25.5" height="17.63" rx="8.74" transform="translate(-394.99 829.32) rotate(-79.2)"/><rect class="cls-3" x="493.06" y="477.48" width="25.5" height="17.63" rx="8.74" transform="translate(-562.89 523.96) rotate(-79.2)"/></svg>