<svg id="Layer_1" data-name="Layer 1" xmlns="http://www.w3.org/2000/svg" viewBox="0 0 207.72 29.68"><defs><style>.cls-1{fill:#fff;}</style></defs><title>icons</title><path id="facebook-facebook" class="cls-1" d="M563.86,497.35H537.45a1.65,1.65,0,0,0-1.64,1.64V525.4a1.64,1.64,0,0,0,1.64,1.64h14.22v-11.5H547.8v-4.48h3.87v-3.3c0-3.84,2.34-5.92,5.76-5.92a33.73,33.73,0,0,1,3.46.17v4h-2.37c-1.86,0-2.22.89-2.22,2.18v2.86h4.43l-.58,4.48H556.3V527h7.56a1.64,1.64,0,0,0,1.64-1.64V499A1.65,1.65,0,0,0,563.86,497.35Z" transform="translate(-535.81 -497.35)"/><g id="google--google-"><path class="cls-1" d="M593.64,512.21A9.71,9.71,0,0,1,609.73,505c-.78.86-1.59,1.72-2.44,2.52-1.7-1-3.73-1.81-5.71-1.11a6.1,6.1,0,1,0,4.11,11.47,5.3,5.3,0,0,0,3.13-3.65c-1.84,0-3.69,0-5.53-.07,0-1.1,0-2.19,0-3.28,3.08,0,6.16,0,9.24,0a10.89,10.89,0,0,1-2,7.72c-2.39,3.08-6.81,4-10.41,2.78a9.66,9.66,0,0,1-6.51-9.13" transform="translate(-535.81 -497.35)"/><path class="cls-1" d="M618.51,508.06h2.75c0,.92,0,1.84,0,2.76H624v2.75l-2.75,0c0,.92,0,1.84,0,2.76h-2.75c0-.92,0-1.84,0-2.76l-2.76,0v-2.75h2.76c0-.92,0-1.84,0-2.76" transform="translate(-535.81 -497.35)"/></g><path id="twitter-twitter" class="cls-1" d="M682.21,502.77a12.65,12.65,0,0,1-3.58,1,6.2,6.2,0,0,0,2.74-3.45,12.56,12.56,0,0,1-4,1.51,6.24,6.24,0,0,0-10.79,4.27,6,6,0,0,0,.17,1.42A17.72,17.72,0,0,1,653.93,501a6.16,6.16,0,0,0-.84,3.13,6.24,6.24,0,0,0,2.77,5.19,6.13,6.13,0,0,1-2.82-.78v.08a6.25,6.25,0,0,0,5,6.12,6.36,6.36,0,0,1-1.64.21,6.47,6.47,0,0,1-1.18-.11,6.25,6.25,0,0,0,5.83,4.33,12.5,12.5,0,0,1-7.75,2.67,14.36,14.36,0,0,1-1.48-.08,17.62,17.62,0,0,0,9.55,2.8c11.48,0,17.75-9.51,17.75-17.75,0-.27,0-.54,0-.8A12.57,12.57,0,0,0,682.21,502.77Z" transform="translate(-535.81 -497.35)"/><path id="youtube-youtube" class="cls-1" d="M743.53,519.53a5.26,5.26,0,0,1-5.24,5.24h-26.2a5.26,5.26,0,0,1-5.24-5.24V504.86a5.26,5.26,0,0,1,5.24-5.24h26.2a5.26,5.26,0,0,1,5.24,5.24ZM721.4,516.7l9.92-5.14-9.92-5.17Z" transform="translate(-535.81 -497.35)"/></svg>