<svg id="Layer_1" data-name="Layer 1" xmlns="http://www.w3.org/2000/svg" viewBox="0 0 555.03 297.3"><defs><style>.cls-1{fill:#dadada;}.cls-2{fill:#c2c2c2;}.cls-3{fill:#c9c9c9;}.cls-4{fill:#ececec;}.cls-5{fill:#e8e8e8;}.cls-6{fill:#495261;}.cls-7{fill:#5d6771;}.cls-8{fill:#00c8ef;}.cls-9{fill:#758dcc;}.cls-10{fill:#e7b659;}.cls-11{fill:#ecc687;}.cls-12{fill:#a39a95;}.cls-13{fill:#4dd4f8;}.cls-14{fill:#b5b5b5;}</style></defs><title>ship</title><ellipse class="cls-1" cx="277.3" cy="117.28" rx="245.93" ry="110.92"/><path class="cls-2" d="M579,529.36s2.22,0,1.48,4.13l-14.33,11.62-2.61-5.48Z" transform="translate(-525.38 -375.98)"/><polygon class="cls-2" points="28.02 186.64 39.48 191.03 41.8 179.11 34.53 174.56 28.02 186.64"/><path class="cls-2" d="M579,540.27a12.34,12.34,0,0,1,1.48,7.76L569.8,562.38,563.55,556Z" transform="translate(-525.38 -375.98)"/><path class="cls-3" d="M564.46,540.54s3.33,3,1.84,8.48l-4.44,4.13L560,559.33l-12.6-4.53,15.29-12.54" transform="translate(-525.38 -375.98)"/><ellipse class="cls-1" cx="28.32" cy="184.04" rx="6.3" ry="7.21"/><ellipse class="cls-4" cx="28.32" cy="184.04" rx="3.84" ry="4.39"/><ellipse class="cls-1" cx="40.35" cy="185.33" rx="5.19" ry="6.51"/><ellipse class="cls-4" cx="40.35" cy="185.33" rx="3.03" ry="3.8"/><path class="cls-5" d="M552.19,559s-11.31,76.08-24.05,76.1c0,0-5.95-6.49,1.15-78.48,5.57-.32,19.79-4.8,19.79-4.8Z" transform="translate(-525.38 -375.98)"/><path class="cls-1" d="M552.19,559s-11.31,76.08-24.05,76.1c0,0,9-1.82,13.59-55.46,5.56-.31,7.35-27.82,7.35-27.82Z" transform="translate(-525.38 -375.98)"/><path class="cls-1" d="M561.86,553.15" transform="translate(-525.38 -375.98)"/><path class="cls-1" d="M578.78,524.37s-.86,7.66-3.47,10c0,0-15.65,9.95-23.48,19.14s-17.38,15.25-24.34,9.19l37-37.58Z" transform="translate(-525.38 -375.98)"/><path class="cls-4" d="M578.58,524.16c-.45.31-3.57-.52-4.25-.6-1.34-.15-2.68-.27-4-.34-12-.62-22.88,6.39-31,14.68C535,542.37,518,559.18,529,563.28a10.82,10.82,0,0,0,8.23-.68,22.89,22.89,0,0,0,6.34-4.91c5.71-5.8,10.52-12.21,16-18.2C565.23,533.26,571.65,529.07,578.58,524.16Z" transform="translate(-525.38 -375.98)"/><path class="cls-6" d="M1048.61,493.26c.28,6.73-3.88,23.36-3.88,23.36s-121.59,7.55-240.28,7.19-241.23-5.33-241.25-7.36c0,0-4.64-7.73-6.45-23.19s23.14-39.68,23.14-39.68h445.57S1047.7,471.44,1048.61,493.26Z" transform="translate(-525.38 -375.98)"/><path class="cls-7" d="M1047.7,488.62c.28,1.21-3,5.13-3,5.13S923.14,495.11,804.45,495s-241.23-1-241.25-1.33c0,0-4.64-1.39-6.45-4.19s23.14-7.17,23.14-7.17h463.26A11.37,11.37,0,0,1,1047.7,488.62Z" transform="translate(-525.38 -375.98)"/><path class="cls-3" d="M779.49,524.17s-1.82,51.83,4.55,60h39.09s5.46-9.09,4.55-60Z" transform="translate(-525.38 -375.98)"/><path class="cls-8" d="M884.59,498.49c0,6.86-.1,24.32-.1,24.32l-53.37.06s-.17-17.49-.17-24.38c0-14.18,12-25.68,26.82-25.68S884.59,484.31,884.59,498.49Z" transform="translate(-525.38 -375.98)"/><path class="cls-8" d="M721.9,498.49c0,6.86.1,24.32.1,24.32l53.37.06s.17-17.49.17-24.38c0-14.18-12-25.68-26.82-25.68S721.9,484.31,721.9,498.49Z" transform="translate(-525.38 -375.98)"/><path d="M1043.66,515.51c-278.26,15.48-482,0-482,0l-.41,3.21s242.75,20.91,479.13.91C1048.61,516.9,1043.66,515.51,1043.66,515.51Z" transform="translate(-525.38 -375.98)"/><path class="cls-9" d="M850.86,409.38c0,18.44-21.11,21.6-47.14,21.6s-47.15-3.16-47.15-21.6S780.4,376,806.44,376,850.86,390.93,850.86,409.38Z" transform="translate(-525.38 -375.98)"/><path class="cls-8" d="M927.37,430.58c-3.29,4.44-19.23,4-32.28-1.8-13.28-6-21.88-13.37-16.18-21.94s22.87-9.49,35-2.74C926.64,411.18,931.78,424.62,927.37,430.58Z" transform="translate(-525.38 -375.98)"/><ellipse class="cls-8" cx="383.67" cy="110.01" rx="11.82" ry="15"/><path class="cls-8" d="M679.35,429.67c3.29,4.45,19.23,4,32.27-1.8,13.29-6,21.89-13.37,16.19-21.94s-22.87-9.49-35-2.74C680.08,410.27,674.94,423.71,679.35,429.67Z" transform="translate(-525.38 -375.98)"/><ellipse class="cls-8" cx="172.29" cy="109.1" rx="11.82" ry="15"/><path class="cls-8" d="M600.37,486c0,8.28,7.11,15,13.64,15s10-6.72,10-15-3.48-15-10-15S600.37,477.7,600.37,486Z" transform="translate(-525.38 -375.98)"/><path class="cls-10" d="M629.66,515.52c1.38,13.26,6.33,26.06,15.45,35.66A29.85,29.85,0,0,0,656.17,559c4.27,1.56,9.23,1.63,13.22-.55,4.88-2.67,7.59-8.27,8.21-13.8a36.6,36.6,0,0,0-1.7-16.53,114.61,114.61,0,0,1-7.21-34c-.46-6.91-2.16-16.44-8.28-20.53-6.4-4.28-15.06-3.24-20.76,1.84-6.2,5.51-8.71,14.07-9.76,22.29A76.77,76.77,0,0,0,629.66,515.52Z" transform="translate(-525.38 -375.98)"/><path class="cls-11" d="M553.56,496.22a48.7,48.7,0,0,0,3.57,16.19,9.27,9.27,0,0,0,2.22,3.64,2.11,2.11,0,0,0,3,0c1.18-1.11.83-3.65.11-9.41s.29-14.15.5-19.23c.12-3.08,0-7.33-1.18-9.25s-3.28-1.69-4.73.47c-2,3-2.45,6.79-3,10.24A38.18,38.18,0,0,0,553.56,496.22Z" transform="translate(-525.38 -375.98)"/><path class="cls-2" d="M575.43,455h454.18s5.36-1.71-2.82-2.62H579.48S570.84,451.9,575.43,455Z" transform="translate(-525.38 -375.98)"/><path class="cls-12" d="M960.86,413.91s-15,.25-23.17-.65c0,0,27.27,10.91,39.09,35.45l42.68-.35s-28.16-23.8-58.6-34.45" transform="translate(-525.38 -375.98)"/><path class="cls-12" d="M645.35,413.91s15,.25,23.17-.65c0,0-27.27,10.91-39.09,35.45l-42.68-.35s28.16-23.8,58.6-34.45" transform="translate(-525.38 -375.98)"/><path class="cls-8" d="M563.55,483.39c0,6.85,3.69,12.41,7.08,12.41s5.19-5.56,5.19-12.41S574,471,570.63,471,563.55,476.54,563.55,483.39Z" transform="translate(-525.38 -375.98)"/><path class="cls-8" d="M1005.55,486c0,8.28-7.11,15-13.63,15s-10-6.72-10-15,3.47-15,10-15S1005.55,477.7,1005.55,486Z" transform="translate(-525.38 -375.98)"/><path class="cls-10" d="M1050.33,502.35a65.27,65.27,0,0,1-6.34,21.1,12.27,12.27,0,0,1-3.3,4.6,2.8,2.8,0,0,1-4-.33c-1.46-1.57-.74-4.91.78-12.47,1.48-7.4,1-18.79,1.25-25.55.14-4.08.64-9.72,2.48-12.14s4.5-1.91,6.21,1.1c2.35,4.14,2.58,9.24,3,13.87A50.28,50.28,0,0,1,1050.33,502.35Z" transform="translate(-525.38 -375.98)"/><path class="cls-10" d="M976.26,515.52c-1.38,13.26-6.33,26.06-15.45,35.66a29.81,29.81,0,0,1-11,7.79c-4.27,1.56-9.23,1.63-13.23-.55-4.88-2.67-7.59-8.27-8.21-13.8a36.6,36.6,0,0,1,1.7-16.53,114.3,114.3,0,0,0,7.21-34c.47-6.91,2.17-16.44,8.29-20.53,6.39-4.28,15.05-3.24,20.75,1.84,6.2,5.51,8.71,14.07,9.77,22.29A77.32,77.32,0,0,1,976.26,515.52Z" transform="translate(-525.38 -375.98)"/><path class="cls-8" d="M1041.47,483.39c0,6.85-3.69,12.41-7.08,12.41s-5.2-5.56-5.2-12.41,1.81-12.4,5.2-12.4S1041.47,476.54,1041.47,483.39Z" transform="translate(-525.38 -375.98)"/><path class="cls-13" d="M1040.56,482.1c0,5.25-2.83,9.51-5.43,9.51s-4-4.26-4-9.51,1.38-9.51,4-9.51S1040.56,476.85,1040.56,482.1Z" transform="translate(-525.38 -375.98)"/><path class="cls-2" d="M1026.78,529.36s-2.22,0-1.48,4.13l14.33,11.62,2.61-5.48Z" transform="translate(-525.38 -375.98)"/><polygon class="cls-2" points="527.01 186.64 515.55 191.03 513.23 179.11 520.5 174.56 527.01 186.64"/><path class="cls-2" d="M1026.78,540.27a12.34,12.34,0,0,0-1.48,7.76L1036,562.38l6.25-6.38Z" transform="translate(-525.38 -375.98)"/><path class="cls-3" d="M1041.33,540.54s-3.33,3-1.84,8.48l4.44,4.13,1.86,6.18,12.6-4.53-15.29-12.54" transform="translate(-525.38 -375.98)"/><ellipse class="cls-1" cx="526.71" cy="184.04" rx="6.3" ry="7.21"/><ellipse class="cls-4" cx="526.71" cy="184.04" rx="3.84" ry="4.39"/><ellipse class="cls-1" cx="514.68" cy="185.33" rx="5.19" ry="6.51"/><ellipse class="cls-4" cx="514.68" cy="185.33" rx="3.03" ry="3.8"/><path class="cls-5" d="M1053.6,559s11.31,76.08,24.05,76.1c0,0,5.95-6.49-1.15-78.48-5.57-.32-19.79-4.8-19.79-4.8Z" transform="translate(-525.38 -375.98)"/><path class="cls-1" d="M1053.6,559s11.31,76.08,24.05,76.1c0,0-9-1.82-13.59-55.46-5.56-.31-7.35-27.82-7.35-27.82Z" transform="translate(-525.38 -375.98)"/><path class="cls-1" d="M1043.93,553.15" transform="translate(-525.38 -375.98)"/><path class="cls-1" d="M1027,524.37s.86,7.66,3.47,10c0,0,15.65,9.95,23.48,19.14s17.38,15.25,24.34,9.19l-37-37.58Z" transform="translate(-525.38 -375.98)"/><path class="cls-4" d="M1027.21,524.16c.45.31,3.57-.52,4.25-.6,1.34-.15,2.68-.27,4-.34,12-.62,22.88,6.39,31,14.68,4.36,4.47,21.3,21.28,10.29,25.38a10.82,10.82,0,0,1-8.23-.68,22.89,22.89,0,0,1-6.34-4.91c-5.71-5.8-10.52-12.21-16-18.2C1040.56,533.26,1034.14,529.07,1027.21,524.16Z" transform="translate(-525.38 -375.98)"/><path class="cls-10" d="M1035.46,513.46c-1,12.39-4.7,24.33-11.48,33.3-2.32,3.08-5,5.81-8.21,7.27a9.85,9.85,0,0,1-9.82-.52c-3.63-2.49-5.65-7.71-6.11-12.88a42.48,42.48,0,0,1,1.27-15.43,130.72,130.72,0,0,0,5.35-31.72c.35-6.45,1.61-15.34,6.16-19.16,4.75-4,11.18-3,15.42,1.72,4.6,5.15,6.47,13.13,7.26,20.81A91.21,91.21,0,0,1,1035.46,513.46Z" transform="translate(-525.38 -375.98)"/><path class="cls-14" d="M991.78,559.18A55.78,55.78,0,0,1,970,568.27c3.64-13.64,8.42-41.28,8.42-41.28L995,526S993.15,545.09,991.78,559.18Z" transform="translate(-525.38 -375.98)"/><path class="cls-3" d="M1000.42,569.63l-20.91-17.27s-3.64,2.73-3.64,10a184.25,184.25,0,0,1,11.37,15.91" transform="translate(-525.38 -375.98)"/><polygon class="cls-2" points="486.86 206.94 468.22 210.02 470.5 193.65 482.31 191.84 486.86 206.94"/><path class="cls-2" d="M981.78,539.18l15.91,8.63L992,554l-12-9.36c-.91-5.45,1.81-5.45,1.81-5.45" transform="translate(-525.38 -375.98)"/><path class="cls-3" d="M995.88,547.81a11,11,0,0,0-4.1,11.37l5.46,5.45,2.27,8.19,12.43-7-16.06-18" transform="translate(-525.38 -375.98)"/><ellipse class="cls-1" cx="481.86" cy="197.74" rx="7.73" ry="9.55"/><ellipse class="cls-4" cx="481.86" cy="197.74" rx="4.7" ry="5.81"/><ellipse class="cls-1" cx="468.22" cy="201.86" rx="6.36" ry="8.61"/><ellipse class="cls-4" cx="468.22" cy="201.86" rx="3.72" ry="5.03"/><path class="cls-5" d="M1009.48,570.15s12.95,93.94,27.53,94c0,0,6.8-8-1.33-96.93-6.36-.39-22.63-5.92-22.63-5.92Z" transform="translate(-525.38 -375.98)"/><path class="cls-1" d="M1009.48,570.15s12.95,93.94,27.53,94c0,0-11.13-1.76-14.77-68.13-6.36-.39-9.19-34.72-9.19-34.72Z" transform="translate(-525.38 -375.98)"/><path class="cls-1" d="M997.24,564.63" transform="translate(-525.38 -375.98)"/><path class="cls-1" d="M978.38,527s1.67,9.87,4.66,12.7c0,0,17.9,12.3,26.86,23.64s14.92,17,27.85,11.35l-42.33-46.41Z" transform="translate(-525.38 -375.98)"/><path class="cls-4" d="M978.38,527c.51.39,3.86-1,10.38-1,2.8,0,5.63-.2,8.42-.07,5.63.26,10.06.54,15.87,3.78a50.2,50.2,0,0,1,10.7,8.12c7.71,7.51,12.89,17,16.55,27,1.88,5.16,1.09,8.44-4.32,10.62a11.68,11.68,0,0,1-9.43-.84,26.61,26.61,0,0,1-7.24-6.06c-6.54-7.18-12-15.09-18.27-22.49C994.57,538.37,986.31,533.06,978.38,527Z" transform="translate(-525.38 -375.98)"/><path class="cls-10" d="M570.46,513.46c1,12.39,4.7,24.33,11.48,33.3,2.33,3.08,5,5.81,8.21,7.27a9.87,9.87,0,0,0,9.83-.52c3.63-2.49,5.64-7.71,6.1-12.88a42.48,42.48,0,0,0-1.26-15.43,130.75,130.75,0,0,1-5.36-31.72c-.34-6.45-1.61-15.34-6.16-19.16-4.75-4-11.18-3-15.42,1.72-4.6,5.15-6.47,13.13-7.25,20.81A90.32,90.32,0,0,0,570.46,513.46Z" transform="translate(-525.38 -375.98)"/><path class="cls-14" d="M905.87,588.73c-8.18,2.72-28.64,5-28.64,5,3.64-13.64,11.82-59.49,11.82-59.49l26.82-.06Z" transform="translate(-525.38 -375.98)"/><path class="cls-3" d="M910.41,578.72l-19.64-17.27s-4.9,5.46-2.07,10.91c4,5.91,9.75,17.73,9.75,17.73" transform="translate(-525.38 -375.98)"/><polygon class="cls-2" points="393.79 216.84 378.21 217.75 380.49 200.93 386.85 201.84 393.79 216.84"/><path class="cls-2" d="M893.59,546.45s-4.54,0-3.63,5.45l12,9.37,4.26-3.77" transform="translate(-525.38 -375.98)"/><path class="cls-3" d="M906.21,557.5s-6.25,1.68-4.43,9l5.45,5.46,2.27,8.18,12.28-10.91L906.21,557.5" transform="translate(-525.38 -375.98)"/><ellipse class="cls-1" cx="391.85" cy="204.11" rx="7.73" ry="10.46"/><ellipse class="cls-4" cx="391.85" cy="204.11" rx="4.7" ry="6.36"/><ellipse class="cls-1" cx="378.21" cy="209.14" rx="6.36" ry="8.61"/><ellipse class="cls-4" cx="378.21" cy="209.14" rx="3.72" ry="5.03"/><path class="cls-4" d="M917.69,577.82s7.27,94.55,21.82,95.46c0,0,7.27-7.59,4.51-96.83-6.33-.77-22.24-7.27-22.24-7.27Z" transform="translate(-525.38 -375.98)"/><path class="cls-1" d="M917.69,577.82s7.27,94.55,21.82,95.46c0,0-8.19,1.82-11.82-67.28-6.33-.77-5.91-36.82-5.91-36.82Z" transform="translate(-525.38 -375.98)"/><path class="cls-1" d="M907.23,571.91" transform="translate(-525.38 -375.98)"/><path class="cls-1" d="M889.05,534.24s.91,9.48,3.63,12.21c0,0,16.37,11.82,24.55,22.73s13.64,16.36,25.46,10.91l-26.82-46Z" transform="translate(-525.38 -375.98)"/><path class="cls-4" d="M889.05,534.24c9.4-1.71,20.77-.1,30.39-.12a20.77,20.77,0,0,1,4.86.38,16.36,16.36,0,0,1,6,3.19,43,43,0,0,1,16.41,29.43c.52,5.25-.67,11.61-5.61,13.7a10.17,10.17,0,0,1-8.61-.8,24.62,24.62,0,0,1-6.63-5.83c-6-6.9-11-14.5-16.69-21.62C903.22,545.18,896.29,540.07,889.05,534.24Z" transform="translate(-525.38 -375.98)"/><path class="cls-14" d="M614,559.18a55.78,55.78,0,0,0,21.82,9.09c-3.64-13.64-8.42-41.28-8.42-41.28l-16.59-1S612.64,545.09,614,559.18Z" transform="translate(-525.38 -375.98)"/><path class="cls-3" d="M605.37,569.63l20.91-17.27s3.64,2.73,3.64,10a184.25,184.25,0,0,0-11.37,15.91" transform="translate(-525.38 -375.98)"/><polygon class="cls-2" points="68.17 206.94 86.81 210.02 84.53 193.65 72.72 191.84 68.17 206.94"/><path class="cls-2" d="M624,539.18l-15.91,8.63,5.73,6.18,12-9.36c.91-5.45-1.81-5.45-1.81-5.45" transform="translate(-525.38 -375.98)"/><path class="cls-3" d="M609.91,547.81a11,11,0,0,1,4.1,11.37l-5.46,5.45-2.27,8.19-12.43-7,16.06-18" transform="translate(-525.38 -375.98)"/><ellipse class="cls-1" cx="73.17" cy="197.74" rx="7.73" ry="9.55"/><ellipse class="cls-4" cx="73.17" cy="197.74" rx="4.7" ry="5.81"/><ellipse class="cls-1" cx="86.81" cy="201.86" rx="6.36" ry="8.61"/><ellipse class="cls-4" cx="86.81" cy="201.86" rx="3.72" ry="5.03"/><path class="cls-5" d="M596.31,570.15s-12.95,93.94-27.53,94c0,0-6.8-8,1.33-96.93,6.36-.39,22.63-5.92,22.63-5.92Z" transform="translate(-525.38 -375.98)"/><path class="cls-1" d="M596.31,570.15s-12.95,93.94-27.53,94c0,0,11.13-1.76,14.77-68.13,6.36-.39,9.19-34.72,9.19-34.72Z" transform="translate(-525.38 -375.98)"/><path class="cls-1" d="M608.55,564.63" transform="translate(-525.38 -375.98)"/><path class="cls-1" d="M627.41,527s-1.67,9.87-4.66,12.7c0,0-17.9,12.3-26.86,23.64S581,580.35,568,574.68l42.33-46.41Z" transform="translate(-525.38 -375.98)"/><path class="cls-4" d="M627.41,527c-.51.39-3.86-1-10.38-1-2.8,0-5.63-.2-8.42-.07-5.63.26-10.06.54-15.87,3.78a50.2,50.2,0,0,0-10.7,8.12c-7.71,7.51-12.89,17-16.55,27-1.88,5.16-1.09,8.44,4.32,10.62a11.68,11.68,0,0,0,9.43-.84,26.76,26.76,0,0,0,7.24-6.06c6.54-7.18,12-15.09,18.27-22.49C611.22,538.37,619.48,533.06,627.41,527Z" transform="translate(-525.38 -375.98)"/><path class="cls-14" d="M699.92,588.73c8.18,2.72,28.64,5,28.64,5-3.64-13.64-11.82-59.49-11.82-59.49l-26.82-.06Z" transform="translate(-525.38 -375.98)"/><path class="cls-3" d="M695.38,578.72,715,561.45s4.9,5.46,2.07,10.91c-4,5.91-9.75,17.73-9.75,17.73" transform="translate(-525.38 -375.98)"/><polygon class="cls-2" points="161.24 216.84 176.81 217.75 174.54 200.93 168.18 201.84 161.24 216.84"/><path class="cls-2" d="M712.2,546.45s4.54,0,3.63,5.45l-12,9.37-4.26-3.77" transform="translate(-525.38 -375.98)"/><path class="cls-3" d="M699.58,557.5s6.25,1.68,4.43,9l-5.45,5.46-2.27,8.18L684,569.18l15.57-11.68" transform="translate(-525.38 -375.98)"/><ellipse class="cls-1" cx="163.18" cy="204.11" rx="7.73" ry="10.46"/><ellipse class="cls-4" cx="163.18" cy="204.11" rx="4.7" ry="6.36"/><ellipse class="cls-1" cx="176.82" cy="209.14" rx="6.36" ry="8.61"/><ellipse class="cls-4" cx="176.82" cy="209.14" rx="3.72" ry="5.03"/><path class="cls-4" d="M688.1,577.82s-7.27,94.55-21.82,95.46c0,0-7.27-7.59-4.51-96.83,6.33-.77,22.24-7.27,22.24-7.27Z" transform="translate(-525.38 -375.98)"/><path class="cls-1" d="M688.1,577.82s-7.27,94.55-21.82,95.46c0,0,8.19,1.82,11.82-67.28,6.33-.77,5.91-36.82,5.91-36.82Z" transform="translate(-525.38 -375.98)"/><path class="cls-1" d="M698.56,571.91" transform="translate(-525.38 -375.98)"/><path class="cls-1" d="M716.74,534.24s-.91,9.48-3.63,12.21c0,0-16.37,11.82-24.55,22.73s-13.64,16.36-25.46,10.91l26.82-46Z" transform="translate(-525.38 -375.98)"/><path class="cls-4" d="M716.74,534.24c-9.4-1.71-20.77-.1-30.39-.12a20.77,20.77,0,0,0-4.86.38,16.36,16.36,0,0,0-6,3.19,43,43,0,0,0-16.41,29.43c-.52,5.25.67,11.61,5.61,13.7a10.17,10.17,0,0,0,8.61-.8,24.62,24.62,0,0,0,6.63-5.83c6-6.9,11-14.5,16.69-21.62C702.57,545.18,709.5,540.07,716.74,534.24Z" transform="translate(-525.38 -375.98)"/></svg>