<svg id="Layer_1" data-name="Layer 1" xmlns="http://www.w3.org/2000/svg" viewBox="0 0 198.21 47.74"><defs><style>.cls-1{fill:#2bb9e8;}</style></defs><title>sportcar</title><path class="cls-1" d="M545,514.87a48.29,48.29,0,0,0-4.32,3.5c1,3.64,2,6.83,3,10.59,6.22,1.64,12.48,1.23,19.08.31.06-7.48-1-15,5.43-19.69a21.76,21.76,0,0,1,11.54-4.17c10.59-.23,14.8,6.32,15.93,23.08,4.22,1.76,77.08,2.46,88.12.71,0-2.08-.08-4.29,0-6.5.61-14.29,11.95-22.29,24.7-17.4,7.37,2.83,10.38,8.81,11.21,16.2.28,2.44.41,4.9.59,7.2,10.61,1.47,17.16-3.07,18.56-12.69-6.68-3-3.41-8.63-2.86-14.19a60.79,60.79,0,0,0-5.72-2.18c-30.93-8.35-62.34-12.38-94.39-10.5-13.56.79-32.87,5.11-44.84,9.35a110.41,110.41,0,0,1-15.74,4.31A87,87,0,0,0,545,514.87Zm44.44-12.25c0-.47,0-.93,0-1.39,3.25-1.34,6.38-3.1,9.75-3.94,9.63-2.4,25.94-6,34.55-6.68s48,2.54,48,2.54l-2.94,6.4-13.73.76L656.42,524l5.42-23.54-55.22,2.3-5.39,23,3.16-22.17-10.83.59Z" transform="translate(-540.7 -488.68)"/><path class="cls-1" d="M702.07,506.57c-9-.1-15.21,6.05-15.2,14.94,0,8.67,6,14.79,14.56,14.92,8.91.13,15.22-6,15.22-14.92C716.65,512.88,710.59,506.67,702.07,506.57Zm5.41,16.73,0,.11,4.76,2.75-5.19-1.7-.06.12,4.06,3.65-4.71-2.72-.09.1,3.2,4.4-4-3.65-.12.08,2.22,5L704.27,527l-.12,0,1.14,5.36-2.23-5-.11,0v5.51l-1.14-5.41h-.1l-1.15,5.41v-5.51l-.12,0-2.23,5,1.14-5.35-.12,0-3.2,4.42,2.21-4.95-.12-.09-4,3.64,3.19-4.39-.09-.11-4.7,2.72,4.06-3.65a.75.75,0,0,1-.07-.12l-5.19,1.7,4.77-2.75,0-.11-5.48.58,5.27-1.71v-.1l-5.52-.57,5.52-.57v-.1l-5.27-1.71,5.48.58,0-.11-4.77-2.74,5.19,1.69a.75.75,0,0,1,.07-.12l-4.06-3.65,4.7,2.72.1-.1L694.1,513l4,3.64.11-.08-2.21-5,3.21,4.43.12,0-1.15-5.35,2.24,5,.11,0v-5.51l1.15,5.41h.1l1.14-5.41v5.51l.11,0,2.23-5L704.15,516l.12,0,3.21-4.42-2.22,5,.12.09,4-3.64-3.21,4.39.1.11,4.71-2.73L707,518.43l.07.11,5.19-1.69-4.77,2.74s0,.08,0,.11l5.47-.58-5.27,1.71s0,.06,0,.1l5.51.57-5.51.57a.31.31,0,0,1,0,.1l5.27,1.71Z" transform="translate(-540.7 -488.68)"/><path class="cls-1" d="M707.69,522.07c0-.18,0-.37,0-.57a5.44,5.44,0,0,0,0-.57s0-.07,0-.1a6.84,6.84,0,0,0-.2-1.13s0-.07,0-.11a6.05,6.05,0,0,0-.42-1.05l-.07-.11a5.11,5.11,0,0,0-.64-.93l-.1-.11a5.36,5.36,0,0,0-.83-.75l-.12-.09a5.22,5.22,0,0,0-1-.54l-.12,0a6.25,6.25,0,0,0-1.09-.31l-.11,0a6.17,6.17,0,0,0-1.07-.1h-.17a8.2,8.2,0,0,0-1.14.1l-.11,0a5.48,5.48,0,0,0-1.09.31l-.12,0a5.64,5.64,0,0,0-1,.54l-.11.08a5,5,0,0,0-.84.75l-.1.1a5.3,5.3,0,0,0-.64.93.75.75,0,0,0-.07.12,6.05,6.05,0,0,0-.42,1.05l0,.11a6.84,6.84,0,0,0-.21,1.13v.1a5.44,5.44,0,0,0,0,.57,5.17,5.17,0,0,0,0,.57v.1a6.65,6.65,0,0,0,.21,1.13l0,.11a6.05,6.05,0,0,0,.42,1.05.75.75,0,0,0,.07.12,4.65,4.65,0,0,0,.64.93l.09.11a5.93,5.93,0,0,0,.84.75l.12.09a5.23,5.23,0,0,0,1,.53l.12,0a5.68,5.68,0,0,0,1.09.31l.12,0a6.05,6.05,0,0,0,1.06.1h.18a8.48,8.48,0,0,0,1.14-.1l.11,0a5.48,5.48,0,0,0,1.09-.31l.12,0a5.91,5.91,0,0,0,1-.54l.12-.08a5.93,5.93,0,0,0,.84-.75l.09-.1a6,6,0,0,0,.65-.93l.06-.12a5.38,5.38,0,0,0,.43-1.05l0-.11a5.8,5.8,0,0,0,.2-1.13A.31.31,0,0,0,707.69,522.07Z" transform="translate(-540.7 -488.68)"/><path class="cls-1" d="M579.07,506.57c-9-.1-15.21,6.05-15.2,14.94,0,8.67,6,14.79,14.56,14.92,8.91.13,15.22-6,15.22-14.92C593.65,512.88,587.59,506.67,579.07,506.57Zm5.41,16.73,0,.11,4.76,2.75-5.18-1.7a.75.75,0,0,0-.07.12l4.06,3.65-4.71-2.72-.09.1,3.2,4.4-4-3.65-.12.08,2.22,5L581.27,527l-.12,0,1.15,5.36-2.24-5-.11,0v5.51l-1.15-5.41h-.1l-1.15,5.41v-5.51l-.11,0-2.24,5,1.14-5.35-.12,0-3.2,4.42,2.21-4.95-.12-.09-4,3.64,3.2-4.39-.1-.11-4.7,2.72,4.06-3.65-.07-.12-5.19,1.7,4.77-2.75,0-.11-5.48.58,5.27-1.71v-.1l-5.52-.57,5.52-.57v-.1l-5.27-1.71,5.48.58,0-.11-4.77-2.74,5.19,1.69.07-.12-4.06-3.65,4.7,2.72.1-.1L571.1,513l4,3.64.11-.08-2.21-5,3.21,4.43.12,0-1.15-5.35,2.24,5,.11,0v-5.51l1.15,5.41h.1l1.15-5.41v5.51l.11,0,2.24-5L581.15,516l.13,0,3.2-4.42-2.22,5,.12.09,4-3.64-3.2,4.39.09.11,4.71-2.73L584,518.43l.07.11,5.19-1.69-4.77,2.74s0,.08,0,.11l5.47-.58-5.27,1.71a.31.31,0,0,1,0,.1l5.51.57-5.51.57a.31.31,0,0,1,0,.1l5.27,1.71Z" transform="translate(-540.7 -488.68)"/><path class="cls-1" d="M584.69,522.07a5.17,5.17,0,0,0,0-.57,5.44,5.44,0,0,0,0-.57.31.31,0,0,0,0-.1,5.93,5.93,0,0,0-.2-1.13s0-.07,0-.11a6.05,6.05,0,0,0-.42-1.05l-.07-.11a5.11,5.11,0,0,0-.64-.93l-.09-.11a5.93,5.93,0,0,0-.84-.75l-.12-.09a5.46,5.46,0,0,0-1-.54l-.13,0a6.25,6.25,0,0,0-1.09-.31l-.11,0a6.17,6.17,0,0,0-1.07-.1h-.17a8.2,8.2,0,0,0-1.14.1l-.11,0a5.48,5.48,0,0,0-1.09.31l-.12,0a5.64,5.64,0,0,0-1,.54l-.11.08a5,5,0,0,0-.84.75l-.1.1a5.91,5.91,0,0,0-.64.93l-.07.12a6.05,6.05,0,0,0-.42,1.05l0,.11a6.84,6.84,0,0,0-.21,1.13v.1a5.44,5.44,0,0,0,0,.57,5.17,5.17,0,0,0,0,.57v.1a6.65,6.65,0,0,0,.21,1.13l0,.11a6.05,6.05,0,0,0,.42,1.05l.07.12a4.65,4.65,0,0,0,.64.93l.1.11a5.36,5.36,0,0,0,.83.75l.12.09a5.23,5.23,0,0,0,1,.53l.12,0a5.58,5.58,0,0,0,1.1.31l.11,0a6.05,6.05,0,0,0,1.06.1h.18a8.48,8.48,0,0,0,1.14-.1l.11,0a5.48,5.48,0,0,0,1.09-.31l.12,0a5.91,5.91,0,0,0,1-.54l.12-.08a5.93,5.93,0,0,0,.84-.75l.09-.1a6,6,0,0,0,.65-.93.75.75,0,0,1,.07-.12,6.05,6.05,0,0,0,.42-1.05l0-.11a5.8,5.8,0,0,0,.2-1.13A.31.31,0,0,0,584.69,522.07Z" transform="translate(-540.7 -488.68)"/></svg>