<svg id="Layer_1" data-name="Layer 1" xmlns="http://www.w3.org/2000/svg" viewBox="0 0 232.22 269.91"><defs><style>.cls-1{fill:#2bb9e8;}</style></defs><title>ferrisTower</title><path class="cls-1" d="M755.54,639.39l-5-11.66a5.3,5.3,0,0,0-1-2.4l-33-76.39,0,0L643.58,380.19l0-.06a5.51,5.51,0,0,0-.4-.76l0,0a4.88,4.88,0,0,0-.53-.67l0-.05a5.32,5.32,0,0,0-.61-.55l-.1-.07a5.22,5.22,0,0,0-.68-.43l-.1-.05-.32-.15-.39-.14-.07,0a5.62,5.62,0,0,0-.79-.18l-.13,0a5.51,5.51,0,0,0-.81-.05h-.11a4.81,4.81,0,0,0-.85.1h-.06a5.41,5.41,0,0,0-.81.24l-.06,0a5.49,5.49,0,0,0-.73.36.41.41,0,0,0-.11.07,4.21,4.21,0,0,0-.64.47l-.1.08a5.12,5.12,0,0,0-.56.58.21.21,0,0,0,0,.06,4.81,4.81,0,0,0-.45.66l0,.06a5.44,5.44,0,0,0-.27.54L529.65,626.49l0,0-5.45,12.91a5.35,5.35,0,0,0,2.85,7,5.3,5.3,0,0,0,2.08.42,5.36,5.36,0,0,0,4.94-3.27l4.08-9.65H633.3v7.57a5.36,5.36,0,0,0,10.72,0V634h97.49l4.19,9.69a5.37,5.37,0,0,0,4.92,3.23,5.36,5.36,0,0,0,4.92-7.48ZM595.13,499.07H633.3v46.58H575.44Zm38.17,59.27V618.8l-33-35.88ZM596.69,579l-20.75-22.58h51Zm53.84-22.58h52.29L681.54,579ZM677.84,583,644,619V558.24Zm30.84-25,25.83,59.79L685.9,582.21ZM644,545.65V499.07h39.23l20.12,46.58Zm0-57.3V408.23l34.6,80.12Zm-10.72,0H599.66l33.64-79.6ZM570.21,558l22.16,24.13-47.24,35.21ZM596,586.13l34.08,37.1H546.25Zm86.18,0L733,623.23H647.37Z" transform="translate(-523.75 -376.96)"/></svg>